<?xml version="1.0"?>
<svg xmlns="http://www.w3.org/2000/svg" xmlns:xlink="http://www.w3.org/1999/xlink" version="1.1" id="Capa_1" x="0px" y="0px" viewBox="0 0 447.977 447.977" style="enable-background:new 0 0 447.977 447.977;" xml:space="preserve" width="512px" height="512px" class=""><g transform="matrix(-1 1.22465e-16 -1.22465e-16 -1 447.977 447.977)"><polygon style="fill:#FFFFFF" points="32.008,15.977 416.008,223.977 32.008,431.977 " data-original="#F44336" class="" data-old_color="#F44336"/><path d="M32.008,447.977c-8.837,0-16-7.163-16-16v-416C16.021,7.14,23.195-0.013,32.031,0c2.652,0.004,5.261,0.667,7.593,1.929  l384,208c7.758,4.23,10.619,13.948,6.389,21.707c-1.472,2.699-3.69,4.918-6.389,6.389l-384,208  C37.293,447.312,34.671,447.984,32.008,447.977z M48.008,42.825v362.304l334.4-181.152L48.008,42.825z" data-original="#000000" class="active-path" style="fill:#F47220" data-old_color="#000000"/></g> </svg>
