<svg xmlns="http://www.w3.org/2000/svg" width="65.04" height="94.12" viewBox="0 0 65.04 94.12">
  <path id="cropped-faviconGREEN" d="M119.51,94.12c-1.483-.816-1.493-2.4-1.781-3.741-.382-1.783-.456-3.634-.66-5.456-.029-.27-.037-.542-.055-.84-1.853-.215-3.68-.351-5.48-.653A28.158,28.158,0,0,1,95.07,74.845,33.508,33.508,0,0,1,86.8,58.012c-.088-.45-.153-.9-.2-1.36-.186-1.627.1-2.04,1.752-2.511-.375-1.026-.794-2.033-1.116-3.072a22.725,22.725,0,0,1,2.127-19.008,2.755,2.755,0,0,1,2.995-1.586c.6.081,1.221.068,1.917.1.138-1.2.235-2.377.415-3.542a22.621,22.621,0,0,1,7.4-13.688,2.214,2.214,0,0,1,2.259-.649c.515.158.8.031,1.052-.507A28.232,28.232,0,0,1,115.473.638c.349-.237.73-.426,1.1-.638h.551a27.716,27.716,0,0,1,12.491,10.71,5.222,5.222,0,0,1,.393.724,1.688,1.688,0,0,0,1.474,1.2,4.742,4.742,0,0,1,2.046,1.314c4.371,4.984,4.412,3.927,7.693,14.7.044.36.119.719.2,1.18.833-.116,1.64-.2,2.439-.347a2.869,2.869,0,0,1,3.193,1.393,22.788,22.788,0,0,1,3.022,19.815c-.151.526-.309,1.048-.482,1.631a1.887,1.887,0,0,1,1.509,2.211c-.724,7.52-3.23,14.305-8.383,19.945a28.621,28.621,0,0,1-16.385,8.756c-1.77.333-3.577.456-5.368.678-.208.026-.414.075-.688.127a20.759,20.759,0,0,0,.643,6,9.478,9.478,0,0,0,.351,1.235,2.075,2.075,0,0,1-.838,2.84C120.123,94.12,119.817,94.12,119.51,94.12Zm28.234-38.345a3.027,3.027,0,0,0-.443-.046,45.949,45.949,0,0,0-15.346,4.077c-1.408.675-1.987.52-2.862-.783a25.56,25.56,0,0,0-9.943-8.346,1.086,1.086,0,0,0-.9,0,25.8,25.8,0,0,0-9.4,8.829c-.893,1.5-1.41,1.675-3.007,1.033a39.739,39.739,0,0,0-9.634-2.559c-2.018-.265-4.053-.412-6.212-.625a8.739,8.739,0,0,0,.186,1.081c.7,2.147,1.243,4.364,2.145,6.423,4.855,11.054,14.149,15.636,24.528,15.87a.929.929,0,0,0,.651-.522c.243-.59.325-1.246.574-1.833a1.542,1.542,0,0,1,1.967-.9,1.582,1.582,0,0,1,.993,1.923c-.085.408-.18.816-.276,1.237,5.713-.059,13.009-2.059,18.124-6.807C144.13,68.967,146.665,62.777,147.744,55.775ZM92.608,33.648c-.665-.142-.785.54-1.013.985-3.3,6.434-2.982,12.839.246,19.186a1.3,1.3,0,0,0,.926.546,50.46,50.46,0,0,1,13.072,2.721,1.036,1.036,0,0,0,.886-.268q2.258-2.462,4.434-5a1.4,1.4,0,0,0,.309-1.007,21.2,21.2,0,0,0-4.149-9A19.738,19.738,0,0,0,92.608,33.648ZM147.878,44.4a20.273,20.273,0,0,0-3-11,1.21,1.21,0,0,0-1.417-.649c-9.8,1.553-15.646,9.4-17.328,17.82a1.336,1.336,0,0,0,.369.993q2.181,2.286,4.445,4.493a1.037,1.037,0,0,0,.886.248,50.244,50.244,0,0,1,13.517-3.6,1.354,1.354,0,0,0,.879-.73A19.708,19.708,0,0,0,147.878,44.4Zm-24.837,4.717a1.584,1.584,0,0,0,.142-.241,29.337,29.337,0,0,1,4.572-9.943,1.589,1.589,0,0,0,.221-.857,12.629,12.629,0,0,0-1.017-5.276c-1.732-4.024-4.829-6.774-8.421-9.079a1.264,1.264,0,0,0-1.636.031,19.159,19.159,0,0,0-8.256,13.438,2.122,2.122,0,0,0,.533,1.822,26.639,26.639,0,0,1,4.857,8.781c.147.445.289.892.45,1.4,1.072-.64,2.044-1.211,3.007-1.8a2.072,2.072,0,0,1,2.18-.059C120.778,47.917,121.881,48.5,123.041,49.119Zm4.548-35.232a3.276,3.276,0,0,0-.138-.386c-2.215-4.458-5.84-7.473-10.112-9.805a.961.961,0,0,0-.855.175c-1.682,1.509-3.417,2.972-4.962,4.618a16.862,16.862,0,0,0-3.41,5.548,26.1,26.1,0,0,1,7.138,7.153c1.691-1.879,3.39-1.349,5.059-.1A21.386,21.386,0,0,1,127.589,13.886Zm-21.9,21.559a22.589,22.589,0,0,1,7.074-12.522c-1.483-1.575-2.846-3.186-4.386-4.6a19.589,19.589,0,0,0-3.259-2.147,1.305,1.305,0,0,0-1.776.364A20.246,20.246,0,0,0,97.577,30.62c-.011.542.232.689.682.888q2.719,1.2,5.377,2.533A18.8,18.8,0,0,1,105.686,35.446Zm25.094.026c.384-.313.649-.563.945-.765,1.386-.949,2.765-1.91,4.178-2.816.73-.469,1.9-.66,2.191-1.29.331-.711-.04-1.789-.21-2.688a19.742,19.742,0,0,0-6.4-11.484,1.327,1.327,0,0,0-1.081-.322,16.376,16.376,0,0,0-7.469,6.837A23.379,23.379,0,0,1,130.78,35.471Z" transform="translate(-86.074)" fill="#95b624"/>
</svg>
