<?xml version="1.0"?>
<svg xmlns="http://www.w3.org/2000/svg" xmlns:xlink="http://www.w3.org/1999/xlink" version="1.1" id="Capa_1" x="0px" y="0px" viewBox="0 0 491.52 491.52" style="enable-background:new 0 0 491.52 491.52;" xml:space="preserve" width="512px" height="512px" class=""><g><circle style="fill:#F47220" cx="245.76" cy="245.76" r="245.76" data-original="#45B39C" class="" data-old_color="#45B39C"/><g>
	<polygon style="fill:#A1461A" points="386.56,115.2 386.56,184.352 370.529,168.321 311.506,227.343 274.417,190.254    333.438,131.231 317.408,115.2  " data-original="#31978C" class="active-path" data-old_color="#31978C"/>
	<polygon style="fill:#A1461A" points="104.96,115.2 104.96,184.354 120.992,168.322 180.015,227.346 217.106,190.255    158.082,131.231 174.114,115.2  " data-original="#31978C" class="active-path" data-old_color="#31978C"/>
	<polygon style="fill:#A1461A" points="386.56,386.56 386.56,317.408 370.529,333.439 311.506,274.417 274.417,311.506    333.438,370.529 317.408,386.56  " data-original="#31978C" class="active-path" data-old_color="#31978C"/>
	<polygon style="fill:#A1461A" points="104.96,386.56 104.96,317.406 120.992,333.438 180.015,274.414 217.106,311.505    158.082,370.529 174.114,386.56  " data-original="#31978C" class="active-path" data-old_color="#31978C"/>
</g><g>
	<polygon style="fill:#FFFFFF" points="386.56,104.96 386.56,174.112 370.529,158.081 311.506,217.103 274.417,180.014    333.438,120.991 317.408,104.96  " data-original="#FFFFFF" class="" data-old_color="#FFFFFF"/>
	<polygon style="fill:#FFFFFF" points="104.96,104.96 104.96,174.114 120.992,158.082 180.015,217.106 217.106,180.015    158.082,120.991 174.114,104.96  " data-original="#FFFFFF" class="" data-old_color="#FFFFFF"/>
	<polygon style="fill:#FFFFFF" points="386.56,376.32 386.56,307.168 370.529,323.199 311.506,264.177 274.417,301.266    333.438,360.289 317.408,376.32  " data-original="#FFFFFF" class="" data-old_color="#FFFFFF"/>
	<polygon style="fill:#FFFFFF" points="104.96,376.32 104.96,307.166 120.992,323.198 180.015,264.174 217.106,301.265    158.082,360.289 174.114,376.32  " data-original="#FFFFFF" class="" data-old_color="#FFFFFF"/>
</g></g> </svg>
