<svg id="g10" xmlns="http://www.w3.org/2000/svg" width="294.146" height="120.785" viewBox="0 0 294.146 120.785">
  <g id="g12">
    <path id="path14" d="M53.926-124.966c41.336,16.988,147.884,18.079,186.989,3.154-23.679,13.982-146.921,16.88-186.625-.56l-1.376,3.056a107.656,107.656,0,0,0,32.277,8.961c-10.906-.973-21.872-2.869-33.023-7.3l-1.11,2.476c8.224,3.409,12.223,5.237,21.646,6.691a62.378,62.378,0,0,1-22.392-5.031l-1.218,2.7c4.028,1.867,5.915,2.869,10.454,3.527a24.777,24.777,0,0,1-10.857-2.574l.108-.3-1.179,2.663a29.806,29.806,0,0,0,5.04,2.26,20.389,20.389,0,0,1-5.3-1.513l.079-.344-.56,1.248,3.508-9.5a91.018,91.018,0,0,1-11.751-4.166l-.835,1.454a13.687,13.687,0,0,0,8.823,4.284c-3.429-.079-6.681-.766-9.5-3.1L36-114.934c1.828,1.847,2.9,2.889,5.7,3.39a7.745,7.745,0,0,1-6.416-2.142l-1.228,2.132a3.786,3.786,0,0,0,2.633,1.778,3.085,3.085,0,0,1-3.046-1.071L32.6-109.019a4.147,4.147,0,0,0,1.14,1.258,2.741,2.741,0,0,1-1.444-.727l-2.437,4.235,4.913-9.9-.039-.039.658-1.366a58.37,58.37,0,0,1-19.867-13.294,47.753,47.753,0,0,0,6.288,19.337c-3.488.383-7.507,1.326-12.311.737a77.286,77.286,0,0,0,29.8,18.6,56.956,56.956,0,0,1-10.553-9.629,105.762,105.762,0,0,0,29.889,7.959A37.331,37.331,0,0,1,45.5-100.834c49.226,19.14,158.937,19.661,202.72-.275q-2.815-7.546-5.64-15.082c-7.949,4.3-17.126,6.161-26.558,7.5,10.808-2.348,20.1-5.61,27.207-10.179l1.484,3.37c3.429-.992,5.365-1.68,8.362-4.176-2.987,2.692-4.795,4.313-7.743,5.571l5.944,13.471c-1.2,2.25-3.576,4.5-6.76,6.76A57.285,57.285,0,0,0,264.5-102.21l-.55-1.268a28.818,28.818,0,0,1-11.525,3.852,25.584,25.584,0,0,0,11.054-4.923l-.943-2.162a14.407,14.407,0,0,1-7.782,2.623,16.412,16.412,0,0,0,7.271-3.793l-1.307-2.987a5.818,5.818,0,0,1-3.989,1.513,7.017,7.017,0,0,0,3.685-2.2l-4.156-9.521q5.881,9.256,11.751,18.511-4.215,6.1-12.862,10.739c9.5-1.847,19.16-5.954,29.152-14.719a26.349,26.349,0,0,1-12.488-.737c1.12-1.513,2.2-3.016,3.223-4.48a30.976,30.976,0,0,1-9.324,1.4,27.217,27.217,0,0,0,10.219-2.682c1.218-1.788,2.319-3.527,3.272-5.188a50.155,50.155,0,0,1-14.886,5.316,42.167,42.167,0,0,0,15.937-7.546l.1.1a29.228,29.228,0,0,0,1.641-3.763,50.329,50.329,0,0,1-18.413,7.222c7.1-2.073,15.288-7.232,23.876-13.51a101.183,101.183,0,0,1-11.289,21.1,50.556,50.556,0,0,0,19.16-.648c-11.044,10.916-27.944,18.452-48.862,23.689q6.382-4.436,8.332-8.509A86.337,86.337,0,0,1,231.1-86.558c-.4-1.169-.806-2.348-1.2-3.518-32.08,7.173-127.083,9.089-158.672-.56l.088,4.068a179.806,179.806,0,0,1-31.1-6.475A55.362,55.362,0,0,0,55.764-82.677C35.838-87.167,17.15-94.969,1.173-110.07q10.361.192,16.654-1.847c-2.712-5.335-4.412-13.048-5.65-21.842,7.742,6.868,15.74,12.586,24.21,16.281l1.955-3.95c4.176,1.719,8.391,3.213,12.616,4.48Zm-18.541,9.4.039.039.324-.658Z" transform="translate(-1.173 203.462)" fill="#79a23b" fill-rule="evenodd"/>
    <path id="path16" d="M95.635-88.037c.314.059.56.1.737.128s.285.049.334.059c.108.01.236.02.373.02s.3.01.481.01a1.689,1.689,0,0,0,.58-.079.739.739,0,0,0,.354-.246,1.557,1.557,0,0,0,.226-.462c.02-.138.088-.511.2-1.12.039-.206.069-.383.088-.511s.039-.226.049-.285l-.079-.373a.249.249,0,0,0-.118-.039c-.069-.02-.167-.029-.3-.059-.177-.029-.314-.059-.422-.069a1.228,1.228,0,0,0-.236-.02.4.4,0,0,0-.147.01c-.059.01-.138.029-.226.049-.069-.01-.354-.059-.845-.147-.314-.059-.58-.118-.806-.177a2.989,2.989,0,0,1-.511-.177,1.435,1.435,0,0,1-.688-.816,2.631,2.631,0,0,1-.039-1.317l1.169-6.622a1.853,1.853,0,0,1,.835-1.356,2.7,2.7,0,0,1,1.808-.187c.2.039.364.059.472.088a.867.867,0,0,1,.226.059,4.947,4.947,0,0,1,.5.167c.2.069.423.167.678.285.02,0,.049.01.069.01a.3.3,0,0,0,.216-.02.223.223,0,0,0,.1-.167l.4-2.3a.352.352,0,0,0-.108-.324,1.253,1.253,0,0,0-.423-.275,7.049,7.049,0,0,0-.737-.216c-.3-.079-.668-.147-1.091-.226-.344-.059-.609-.108-.8-.138s-.3-.059-.354-.059a4.9,4.9,0,0,0-1.012-.029,8.534,8.534,0,0,0-1.14.157,3.558,3.558,0,0,0-1.936,1,3.649,3.649,0,0,0-.933,1.975l-1.533,8.686a4.288,4.288,0,0,0,.275,2.682,3.887,3.887,0,0,0,1.906,1.778,5.536,5.536,0,0,0,1.022.364c.422.1.874.2,1.385.285Zm7.693-15.269L100.882-87.83a.594.594,0,0,0,.039.364.325.325,0,0,0,.246.167l2.417.383a.636.636,0,0,0,.383-.059.709.709,0,0,0,.295-.314l4.274-7.507.226-.206-1.326,8.332.364.422,2.535.4.432-.295,2.476-15.593-.324-.413-2.417-.383a.486.486,0,0,0-.4.157,2.155,2.155,0,0,0-.452.58l-4.038,6.78-.226.226,1.267-7.988-.364-.423-2.535-.4Zm11.692,1.8L113.1-85.836a.276.276,0,0,0,.088.275.588.588,0,0,0,.344.138l5.217.639a4.759,4.759,0,0,0,2.388-.265,4.694,4.694,0,0,0,1.886-1.415,5.26,5.26,0,0,0,.835-1.385,6.091,6.091,0,0,0,.413-1.6,5.179,5.179,0,0,0-.531-3.262,5.127,5.127,0,0,0-2.525-2.122q-.324-.133-.619-.236a4.646,4.646,0,0,0-.58-.157c-.373-.079-.747-.147-1.13-.216s-.757-.118-1.15-.177l.334-2.692.138-.147,5.591.688.275-.275.295-2.427-.206-.265-8.755-1.071Zm4.274,9.285c.354.039.717.373,1.1,1a1.456,1.456,0,0,1,.216.6,3.327,3.327,0,0,1,0,.766,3.126,3.126,0,0,1-.187.766,1.478,1.478,0,0,1-.354.531,3.08,3.08,0,0,1-.747.54,1.29,1.29,0,0,1-.678.147,3.045,3.045,0,0,1-.364-.02c-.167-.02-.383-.039-.658-.079-.187-.02-.344-.039-.452-.059a.587.587,0,0,1-.226-.049l-.108-.128.521-4.245Zm8.283-7.949-1.366,15.6a.658.658,0,0,0,.059.364.3.3,0,0,0,.255.147l2.437.216a.652.652,0,0,0,.383-.088.734.734,0,0,0,.275-.334l3.734-7.792.206-.216-.737,8.411.393.393,2.555.226.413-.324L137.561-99.3l-.344-.393-2.437-.216a.513.513,0,0,0-.393.177,2.165,2.165,0,0,0-.413.609l-3.557,7.035-.216.246.707-8.057-.393-.393-2.555-.226Zm15.072,10.69c.855.039,1.71.049,2.574.039a5.821,5.821,0,0,0,.865-.069,4.369,4.369,0,0,0,.747-.177,5.109,5.109,0,0,0,2.338-1.621,4.789,4.789,0,0,0,.914-2.633A7.733,7.733,0,0,0,150.1-95a5.187,5.187,0,0,0-.138-.855,4.451,4.451,0,0,0-1.493-2.388,5,5,0,0,0-2.8-.963l-5.384-.373a.6.6,0,0,0-.354.059.274.274,0,0,0-.138.255l-1.1,15.642a.531.531,0,0,0,.069.354.274.274,0,0,0,.255.138l2.564.177a.383.383,0,0,0,.324-.1.5.5,0,0,0,.128-.344l.413-5.974Zm2.417-6.711a1.378,1.378,0,0,1,1.071.521,2.076,2.076,0,0,1,.275,1.366,2.041,2.041,0,0,1-.491,1.317,1.729,1.729,0,0,1-1.228.472,2.876,2.876,0,0,1-.393-.01c-.177-.01-.413-.02-.7-.049-.177-.01-.334-.02-.452-.039a1.185,1.185,0,0,1-.275-.039l-.108-.128.246-3.557Zm11.909,14.159c.324.01.57.02.757.029s.295.01.344.01c.108-.01.236-.02.373-.029s.3-.029.481-.059a1.648,1.648,0,0,0,.56-.157.765.765,0,0,0,.314-.295,1.445,1.445,0,0,0,.157-.491c.01-.147.02-.521.039-1.14.01-.216.01-.393.02-.521s.01-.226.01-.285l-.128-.364a.219.219,0,0,0-.118-.02,2.587,2.587,0,0,0-.3-.01c-.177-.01-.324-.01-.432-.01a1.465,1.465,0,0,0-.236.01.546.546,0,0,0-.147.029c-.059.02-.128.049-.216.079q-.1,0-.855-.029a8.058,8.058,0,0,1-.816-.059,3.29,3.29,0,0,1-.531-.108,1.466,1.466,0,0,1-.8-.717,2.674,2.674,0,0,1-.226-1.3l.236-6.721a1.8,1.8,0,0,1,.639-1.454,2.647,2.647,0,0,1,1.759-.432c.206.01.364.01.481.02a.523.523,0,0,1,.226.029c.138.02.314.049.511.088s.442.108.707.187h.069a.336.336,0,0,0,.216-.049.216.216,0,0,0,.079-.177l.079-2.329a.384.384,0,0,0-.147-.314,1.077,1.077,0,0,0-.452-.206q-.295-.059-.766-.118c-.314-.029-.678-.059-1.11-.069-.344-.01-.609-.02-.806-.029s-.314-.01-.364-.01a5.12,5.12,0,0,0-1,.108,7.888,7.888,0,0,0-1.1.314,3.621,3.621,0,0,0-1.778,1.258,3.693,3.693,0,0,0-.648,2.083l-.295,8.813a4.314,4.314,0,0,0,.639,2.623,3.884,3.884,0,0,0,2.142,1.493,5.44,5.44,0,0,0,1.061.216c.4.049.865.088,1.376.108Zm8.961-6.878a.97.97,0,0,1,.226-.02h.462c.344.01.629.02.855.049a2.172,2.172,0,0,1,.521.118,1.657,1.657,0,0,1,.766.6,1.5,1.5,0,0,1,.255.894l-.088,5.011.423.364,2.564.049.383-.354.108-6.111a2.054,2.054,0,0,0-.079-.619,1.413,1.413,0,0,0-.285-.5l-.3-.334a4.048,4.048,0,0,0-.3-.275,6.933,6.933,0,0,0-.707-.511,1.185,1.185,0,0,1-.108-.1.166.166,0,0,1-.029-.1v-.039c.138-.128.265-.265.393-.4a4.856,4.856,0,0,0,.354-.432,1.894,1.894,0,0,0,.236-.373.629.629,0,0,0,.079-.246l.049-2.948a.343.343,0,0,1,.079-.216.457.457,0,0,1,.236-.138,1.863,1.863,0,0,1,.3-.059,4.1,4.1,0,0,1,.432-.049.6.6,0,0,0,.275-.138.319.319,0,0,0,.088-.236l.029-1.945a.253.253,0,0,0-.118-.2,1.191,1.191,0,0,0-.354-.167,4.762,4.762,0,0,0-.521-.029c-.167-.01-.344-.01-.521-.01a9.4,9.4,0,0,0-.963.02,2.144,2.144,0,0,0-.56.1,2.619,2.619,0,0,0-1.169.747,1.84,1.84,0,0,0-.413,1.169l-.049,3.066a.594.594,0,0,1-.079.236,2.712,2.712,0,0,1-.236.373,1.839,1.839,0,0,1-.314.344.492.492,0,0,1-.285.118l-1.592-.029-.187-.118.1-5.748a.308.308,0,0,0-.138-.275.865.865,0,0,0-.4-.1l-2.329-.039a.591.591,0,0,0-.354.079.317.317,0,0,0-.128.265L162.262-82.5a.586.586,0,0,0,.088.354.294.294,0,0,0,.265.128l2.564.049a.423.423,0,0,0,.324-.118.582.582,0,0,0,.118-.354l.108-6.367Zm8.666-9.265.275,15.662a.584.584,0,0,0,.1.354.31.31,0,0,0,.265.118l2.447-.039a.612.612,0,0,0,.373-.128.726.726,0,0,0,.236-.354l2.9-8.136.187-.246.147,8.44.432.354,2.564-.049.373-.364-.275-15.78-.383-.354-2.447.039a.519.519,0,0,0-.373.216,2.732,2.732,0,0,0-.354.648l-2.79,7.369-.187.265-.138-8.086-.432-.354-2.564.049Zm13.3-3.635a.349.349,0,0,0-.01.147,1.82,1.82,0,0,0,.01.216,1.892,1.892,0,0,0,.1.55,1.414,1.414,0,0,0,.236.413,2.046,2.046,0,0,0,.472.432.668.668,0,0,0,.413.138l4.51-.236a.775.775,0,0,0,.55-.246,1.509,1.509,0,0,0,.373-.658,1.863,1.863,0,0,0,.088-.354,2.5,2.5,0,0,0,.02-.383,1.3,1.3,0,0,0-.059-.354q-.044-.118-.118-.118l-1.592.079c-.01,0-.02.01-.039.029a.319.319,0,0,1-.079.088l-.226.364c-.059.088-.088.128-.1.128l-2.329.118q-.015,0-.118-.118c-.059-.079-.157-.187-.265-.344a.8.8,0,0,1-.088-.079.108.108,0,0,0-.059-.029l-1.562.079Zm-1.385,3.626.816,15.642a.592.592,0,0,0,.108.344.309.309,0,0,0,.275.108l2.447-.128a.658.658,0,0,0,.364-.138.8.8,0,0,0,.226-.364l2.614-8.234.177-.246.442,8.43.442.334L197-82.574l.364-.373-.825-15.76-.4-.334-2.447.128a.515.515,0,0,0-.364.236,2.273,2.273,0,0,0-.324.658l-2.535,7.467-.177.275-.423-8.077-.442-.334-2.564.138Zm25.34,14.709c.4-.039.766-.088,1.081-.147a4.3,4.3,0,0,0,.845-.255,4.164,4.164,0,0,0,1.661-1.307,5,5,0,0,0,.865-2.083,7.555,7.555,0,0,0,.118-.825,3.765,3.765,0,0,0,.01-.658l-.619-6.956a5.435,5.435,0,0,0-.167-.884c-.088-.334-.226-.727-.393-1.169a3.9,3.9,0,0,0-1.11-1.641,4.546,4.546,0,0,0-1.818-.924,5.385,5.385,0,0,0-.874-.118,6.977,6.977,0,0,0-1.091.029,6.662,6.662,0,0,0-1,.157,9.526,9.526,0,0,0-.943.275,3.5,3.5,0,0,0-1.435.992,4.624,4.624,0,0,0-.914,1.67,7.734,7.734,0,0,0-.255,1.159,4.828,4.828,0,0,0-.029,1.061l.629,7.2a4.551,4.551,0,0,0,.216,1.051,7.33,7.33,0,0,0,.452,1.11,4.109,4.109,0,0,0,1.877,1.847A5.664,5.664,0,0,0,211.861-83.478Zm-.265-3.007a1.464,1.464,0,0,1-1.228-.354,2.052,2.052,0,0,1-.511-1.356l-.629-7.2a2.082,2.082,0,0,1,.275-1.425,1.485,1.485,0,0,1,1.15-.57c1.042-.088,1.621.481,1.729,1.71l.629,7.2c.1,1.238-.373,1.906-1.415,1.995Zm10.081-4.756c.845-.128,1.69-.275,2.535-.452a6.046,6.046,0,0,0,.835-.226,4.157,4.157,0,0,0,.7-.314,5.1,5.1,0,0,0,1.985-2.034,4.819,4.819,0,0,0,.4-2.761,8.238,8.238,0,0,0-.2-1.042,5.979,5.979,0,0,0-.295-.816,4.441,4.441,0,0,0-1.926-2.063,5.019,5.019,0,0,0-2.928-.413l-5.355.658a.617.617,0,0,0-.344.128.294.294,0,0,0-.088.285l1.906,15.554a.556.556,0,0,0,.138.334.276.276,0,0,0,.275.088l2.545-.314a.419.419,0,0,0,.3-.157.576.576,0,0,0,.069-.364l-.727-5.944Zm1.1-7.055a1.359,1.359,0,0,1,1.15.3,2.033,2.033,0,0,1,.531,1.287,2.04,2.04,0,0,1-.226,1.385,1.7,1.7,0,0,1-1.12.7,2.737,2.737,0,0,1-.393.069c-.177.029-.413.049-.688.088-.177.02-.334.039-.452.049a1.771,1.771,0,0,1-.285.02l-.128-.108-.432-3.537Zm6.387-3.37,2.447,15.475a.588.588,0,0,0,.147.334.314.314,0,0,0,.285.079l8.45-1.336a.676.676,0,0,0,.275-.1.2.2,0,0,0,.059-.2l-.383-2.417-.3-.265-5.542.874-.619-3.92.088-.206,3.852-.609.216-.324-.383-2.417-.3-.265-3.969.629-.491-3.1.088-.187,5.07-.806c.236-.039.334-.2.285-.481l-.344-2.181-.4-.295-8.214,1.3Zm11.673-1.7a1.557,1.557,0,0,0,.255.609c.373.59.835,1.326,1.405,2.221s1.238,1.936,2.024,3.144a3.079,3.079,0,0,1,.147.314,2.2,2.2,0,0,1,.1.364c.01.079.029.138.029.177a.316.316,0,0,1,.01.079l-2.034,8.185a1.918,1.918,0,0,0-.029.334c0,.108.01.216.02.324a.439.439,0,0,0,.1.236.219.219,0,0,0,.2.059l2.761-.491a.436.436,0,0,0,.216-.1.36.36,0,0,0,.118-.206l1.277-4.687c0-.01,0-.02.01-.02s.02-.01.029-.01a.272.272,0,0,1,.128.01.219.219,0,0,1,.088.1l2.8,3.852a.383.383,0,0,0,.177.157.4.4,0,0,0,.216.02l2.79-.491a.2.2,0,0,0,.167-.118.429.429,0,0,0,.01-.255,1.172,1.172,0,0,0-.069-.226c-.039-.079-.079-.167-.138-.265l-4.913-7.467,1.857-7.015a1.079,1.079,0,0,0,.049-.511.476.476,0,0,0-.108-.255.223.223,0,0,0-.206-.049l-2.879.511-.314.413-.983,3.311-.187-.108c-.255-.4-.511-.8-.766-1.189s-.511-.776-.757-1.15a2.277,2.277,0,0,0-.4-.491.431.431,0,0,0-.324-.128l-2.643.462a.226.226,0,0,0-.177.118c-.059.049-.069.128-.049.236" transform="translate(-24.793 195.989)" fill="#fff" opacity="0.999"/>
    <path id="path18" d="M87.9-196.158c2.751-1.454,7.428-.531,7.428,2.781v.924a3.149,3.149,0,0,1-1.081,2.476c0-1.67-1.032-3.1-2.476-3.1H91c-1.336,0-2.633,1.975-2.633,3.557,0,2.152,2.407,4.019,4.638,4.019a8.673,8.673,0,0,0,5.3-1.828c1.012-.757,1.366-3.174,1.759-4.579.727-2.594,2.073-7.644,2.073-10.612a5.461,5.461,0,0,0-3.252-4.176l-.462.776c-.324.2-.688.128-1.081-.3l-7.88-7.448.167,4.2c-4-.9-3.242-2-8.843-2l-1.385.177a4.827,4.827,0,0,1,2.417,4.844,4.945,4.945,0,0,0-4.746-.069l2.623,2.486c-1.69-1.6-6.858-1.739-8.656-.167a11.923,11.923,0,0,1,7.271-5.414c-2.466-2.093-6.77-.7-9.59-.462,2.152-1.867,8.42-4.333,12.537-4.333h2.162a36.086,36.086,0,0,1,3.714.619,5.658,5.658,0,0,0-2.319-3.871c2.181.049,5.885,2.358,7.241,3.429a16.264,16.264,0,0,1,4.824,5.7l2.112-2.368,3.233,6.269a19.633,19.633,0,0,0-1.759-8.725c-.6-1.543-3.223-5.316-4.667-5.7,1.326,1.12,2.289,3.665,1.4,5.266a12.976,12.976,0,0,0-4.608-4.677,13.832,13.832,0,0,0-8.548-2.437c-2.908,0-7.566,1.592-8.666,3.1,1.886-.786,4.618-1.5,6.495.924h-.776c-4.52,0-11.515,3.4-14.512,5.3-2.466,1.552-9.383,7.389-10.091,10.022,4.608-2.211,6.593-3.871,13.618-3.871a21.553,21.553,0,0,0-2.751,1.425,21.927,21.927,0,0,0-6.622,5.905,22.228,22.228,0,0,0-4.235,12.478c.688-.8,1.837-3.645,2.594-4.834a35.72,35.72,0,0,1,3.066-4.353c2.948-3.468,6.21-5.208,10.729-5.208a7.913,7.913,0,0,1,8.047,7.733c0,.8-.521,3.1-1.238,3.1-.216,0-1.808-.953-2.319-1.081a28.562,28.562,0,0,1,2.447,3.272,12.711,12.711,0,0,1,1.11,4.618v.924l-.285,2.014a27.943,27.943,0,0,0-1.847-2.525,5.5,5.5,0,0,0-2.83-1.5c1.1.963,1.405.717,2.417,2.23a7.633,7.633,0,0,1,1.15,3.341v2.014c0,3.154-2.319,7.271-2.319,10.523v1.857c0,3.193,5.07,9,7.271,9.59-1.906-4.952-1.8-14.542,4.952-14.542h1.4c2.191,0,5.571,3.645,5.571,6.033v1.4a3.435,3.435,0,0,1-3.252,3.252H92.068c-1.287,0-2.781-1.729-2.781-3.1v-.314c0-1.14.442-2.319,1.552-2.319h.619c.9,0,.943.56,1.4,1.081,0-1.808-.766-3.1-2.476-3.1h-.157c-2.663,0-3.527,2.938-3.753,5.1-.177,1.887,1.857,6.937,2.6,8.116,1.071,1.68.717,1.886,2.594,2.82,2.348,1.179,7.733,3.763,10,3.763,2.407,0,2.564-1.493,3.35-3.144A24.226,24.226,0,0,1,107.238-153c-5.885-3.94-9.059-12.252-9.953-19.6a42.809,42.809,0,0,1,.206-9.649c-2.358,1.277-2.466,1.7-6.5,1.7a7.012,7.012,0,0,1-6.3-4.225,9.787,9.787,0,0,1-.265-7.084c.56-1.965,1.592-3.793,3.478-4.294Zm60.505,5.109-1.13.079,1.287.855c1.081.118,2.859.57,2.938-1.081a6.091,6.091,0,0,1-.314-1.7c0-1.189,1.258-.472,1.857-.157a6.22,6.22,0,0,0,2.938,1.081h.157a10.761,10.761,0,0,0,4.019-1.081c.747,0,.806.462,1.552.462h.157a1.906,1.906,0,0,0,1.552-1.552v-.462a.81.81,0,0,0-.314-.776c-.029,1.385-1.268,1.218-2.633,1.228-1.4.01-2.25.933-3.085.933l-1.71.059-1.847-.364a3.74,3.74,0,0,0-2.014-.776c-.766,0-1.552.413-1.552,1.081,0,.462.314.413.314,1.081-.01,1.209-.973,1.091-2.171,1.091Zm-1.552-4.176-.157,1.552h.619c.668,0,.983-.472,1.552-.776,1.307-1.5,1.258-1.945,2.938-3.409,1.7-.816,2.417,1.081,4.019,1.081,1.061,0,.9-1.14,1.4-1.7,1.287-.865,1.631-1.091,3.1-.314a1.353,1.353,0,0,0,.776-1.238c0-1.071-2.633-6.043-3.311-7.212-1.081-1.886-2.859-4.549-5.669-4.549h-1.552c-4.844,0-4.156,6.092-8.293,6.131l2.879,3.154.619.924.776,1.857a13.231,13.231,0,0,1,.462,2.476v1.238a2.155,2.155,0,0,1-.147.786Zm-3.1,4.176a3.834,3.834,0,0,0,.924-2.319,8.473,8.473,0,0,0-2.171-6.347c-1.631-3.085-6.347-5.286-6.347-10.523,0-1.081.3-2.486.924-2.938a2.837,2.837,0,0,0,2.476,3.1c-1.513-2.869-1.356-4.4.462-7.114a1.57,1.57,0,0,0-1.238-.462c-1.651,0-2.162,1.592-2.781,2.633-.707,1.189-1.425,2.309-2.152,3.419a34.491,34.491,0,0,1-5.325,5.659c-2.319,2.1-10.631,7.625-14.5,7.625v.147l4.638.314a23.618,23.618,0,0,0,13.3-4.176,4.964,4.964,0,0,0,5.109,5.109c-.766,1.15-1.552,1.484-1.552,4.638a5.207,5.207,0,0,0,4.638,4.795h1.7a4.34,4.34,0,0,0,1.4-.314c-.658-.58-1.828-.707-2.663-1.67a4.925,4.925,0,0,1-1.356-3.439c0-1.385.717-2.781,2.014-2.781,2.427,0,2.506,2.948,2.506,4.647Zm10.8-11.142c-1.769-1.022-2.663-.678-4.146-2.162a2.529,2.529,0,0,1-.314-2.319c1.936-.128,2.859-.57,4.205,1.209a2.9,2.9,0,0,1,.255,3.272Zm-19.6,54.089c-1.523-.118-3.134-1.022-4.972-1.022h-1.238c-.54,0-.216.275-.924.462v.462c0,1.11,2.3.3,3.252.3.973,0,1.651,1.081,2.319,1.081.324,0,.206-.059.619-.157l-.3-.884Zm-7.91.992a2.369,2.369,0,0,0-.776.157v.314c1.1.295,2.329,2.319,3.557,2.319h.314c.953,0,1.169-.933,3.1-.933a2.655,2.655,0,0,0-2.319-1.543c-.128.472-.3.619-.924.619h-.157c-.9,0-1.493-.933-2.79-.933Zm-4.638,3.714c-.039-.481-.462-1.238.314-1.238.423,0,1.051,1.7,2.319,1.7h.924a2.3,2.3,0,0,0,1.857-.776c-2.152-.049-2.957-3.252-4.49-3.252a3.826,3.826,0,0,0-3.183,2.073c-.776,1.189-1.926,2.044-2.378,2.722C119.5-142.157,121.79-142.226,122.409-143.395Zm27.236-44.559a5.09,5.09,0,0,1-1.543-.157,2.823,2.823,0,0,0,2.014.776c2.525,0,3.5-1.4,4.49-1.4,1.788,0,2.564.766,3.9.825l-.806.413c.246.914,3.311,1.857,4.647,1.857l.7.088-.855.845c1.336,0,2.682-.423,2.967-1.454l-4.51-1.641,1.1.029,1.464-.983-.088-.128h-1.4c-3.1,0-6.632-1.857-7.733-1.857C152.465-190.744,152.878-187.953,149.645-187.953ZM140.2-215.347v.462c0,1.837,3.252,2.486,3.252,4.333,0,2.024-2.28,1.032-2.319,2.938,1.326-1.4,4.019-.383,4.019-2.476v-.776c0-.963-.462-1.985-.462-3.252,0-1.317,1.857-1.631,1.857-2.633v-1.238c0-.816-1.641-2.427-2.319-2.781-1.179,1.759-4.028,3.164-4.028,5.424Zm1.7-9.285a13.881,13.881,0,0,1-.776,4.333c.442-.324,1.778-2.781,2.162-2.781.648,0,2.869,2.083,3.282,2.6a6.425,6.425,0,0,1,1.67,4.205,6.611,6.611,0,0,1-.462,2.476,7.685,7.685,0,0,1,2.781-.462v-2.171a12.686,12.686,0,0,0-9.59-11.918,8.214,8.214,0,0,1,.933,3.714Zm-22.127,29.251c3.93,4.363,6.387,10.739-.314,16.556,7.5,0,11.8,4.638,17.794,4.638h1.552c4.009,0,9.049-3.557,11.417-5.443a28.707,28.707,0,0,1,5.266-3.085c2.594-1.14,3.8-1.061,6.986-1.061l-1.464-.8-.059.157-.354-.423-2.447-.383-1.552.059c-3.262,0-7.693,2.643-9.747,4.019a6.734,6.734,0,0,1,2.211-2.9c1.258-1.042,2.437-1.1,3.36-1.749a11.058,11.058,0,0,1-4.127-1.13c-.865-.432-2.948-2.063-3.144-2.113a5.075,5.075,0,0,1-5.109,4.176c-5.8,0-7.349-6.77-5.109-10.68-2.368,0-3.272-.531-3.871-3.1-1.189.275-3.321,1.661-5.1,2.171a25.253,25.253,0,0,1-6.19,1.081Zm2.84,23.395c-.177.56.246,4.353.138,5.119a31.192,31.192,0,0,1-1,4.569,17.1,17.1,0,0,1-4.107,7.035c-1.975,1.975-3.842,3.557-7.625,3.665-1.867.059-2.633.983-2.623,2.948a6.379,6.379,0,0,1-.206,2.584,5.025,5.025,0,0,0-.57,2.682,8.954,8.954,0,0,0,3.4.619c6.829,0,6.839-1.552,10.405-4.6,2.044-1.749,3.724-.9,5.689-1.9,1.336-.678,3.518-2.171,5.257-2.171h.619c1.415,0,1.356.707,2.171.924.118-.462,3.134-4.392,3.852-6.21a23.125,23.125,0,0,0,2.034-8.332v-2.781l-.422-4.343c-.865.079-1.12.472-1.749.472h-1.857c-1.3,0-2.908-1.317-3.714-1.857.54,2.309,2.171,3.911,2.171,7.271v1.081c0,4.8-3,5.551-3.252,6.5-.531-.216-1.268.462-2.162.462H127.98c-1.484,0-3.871-1.906-3.871-3.4V-163.5c0-.973.6-1.376.314-2.014.874-.236.619-1.7,2.633-1.7.648,0,1.1.658,1.238,1.238a1.623,1.623,0,0,0-1.4,1.7,1.989,1.989,0,0,0,1.857,1.857h.776c1.474,0,2.476-2.132,2.476-3.714,0-1.985-2.692-5.434-3.911-6.455a15.211,15.211,0,0,0-6.672-3.468Zm-12.429-16.124a4,4,0,0,1,3.714-3.714h.462c6.141,0,6.2,9.442,2.476,9.442-.874,0-1.837-.491-1.857-1.4h1.4v-.924a1.166,1.166,0,0,0-1.238-1.238h-.314a2.12,2.12,0,0,0-1.7,1.552v.924c0,1.5,1.985,2.781,3.714,2.781h.314c3.115,0,4.795-3.262,4.795-6.033,0-4.3-4.156-9.128-8.352-9.128h-.314c-6.77,0-10.985,10.248-10.985,17.332,0,3.7,1.611,9.727,3.1,13.146.953,2.191,3.252,9.619,3.252,12.537,3.744,0,7.32-3.449,9.01-5.689,2.1-2.79,3.066-6.77,3.066-11.172,0-1.307-.3-6.22-.924-7.114a8.219,8.219,0,0,1-8.2,8.2c1.326-2.506,3.409-5.188,3.409-8.2v-1.238c-1.572,1.837-4.9,2.506-5.571,0a3.213,3.213,0,0,0,2.162-3.252c-3.321,3.822-6.229-2.545-3.871-5.266,0,1.69.58,2.781,2.162,2.781a2.541,2.541,0,0,0,1.081-.314c0-3.685.619-4.019,2.319-4.952a8.659,8.659,0,0,0-1.081-.157h-.157c-.914.01-1.307.717-1.857,1.091" transform="translate(-15.724 228.346)" fill="#f47216" fill-rule="evenodd"/>
    <path id="path1676" d="M291.584-196.158c-2.751-1.454-7.428-.531-7.428,2.781v.924a3.149,3.149,0,0,0,1.081,2.476c0-1.67,1.032-3.1,2.476-3.1h.776c1.336,0,2.633,1.975,2.633,3.557,0,2.152-2.407,4.019-4.638,4.019a8.673,8.673,0,0,1-5.3-1.828c-1.012-.757-1.366-3.174-1.759-4.579-.727-2.594-2.073-7.644-2.073-10.612a5.461,5.461,0,0,1,3.252-4.176l.462.776c.324.2.688.128,1.081-.3l7.88-7.448-.167,4.2c4-.9,3.242-2,8.843-2l1.385.177a4.827,4.827,0,0,0-2.417,4.844,4.945,4.945,0,0,1,4.746-.069l-2.623,2.486c1.69-1.6,6.858-1.739,8.656-.167a11.923,11.923,0,0,0-7.271-5.414c2.466-2.093,6.77-.7,9.59-.462-2.152-1.867-8.42-4.333-12.537-4.333h-2.171a36.09,36.09,0,0,0-3.714.619,5.658,5.658,0,0,1,2.319-3.871c-2.181.049-5.885,2.358-7.241,3.429a16.263,16.263,0,0,0-4.824,5.7l-2.113-2.368-3.233,6.269a19.768,19.768,0,0,1,1.759-8.725c.6-1.543,3.223-5.316,4.667-5.7-1.326,1.12-2.289,3.665-1.4,5.266a12.976,12.976,0,0,1,4.608-4.677,13.832,13.832,0,0,1,8.548-2.437c2.908,0,7.566,1.592,8.666,3.1-1.886-.786-4.618-1.5-6.495.924h.776c4.52,0,11.506,3.4,14.512,5.3,2.466,1.552,9.383,7.389,10.091,10.022-4.608-2.211-6.593-3.871-13.618-3.871a21.553,21.553,0,0,1,2.751,1.425,21.928,21.928,0,0,1,6.622,5.905,22.228,22.228,0,0,1,4.235,12.478c-.688-.8-1.837-3.645-2.594-4.834a36.834,36.834,0,0,0-3.066-4.353c-2.948-3.468-6.21-5.208-10.729-5.208a7.913,7.913,0,0,0-8.047,7.733c0,.8.521,3.1,1.238,3.1.216,0,1.808-.953,2.319-1.081a28.547,28.547,0,0,0-2.447,3.272,12.513,12.513,0,0,0-1.11,4.618v.924l.285,2.014a27.943,27.943,0,0,1,1.847-2.525,5.494,5.494,0,0,1,2.83-1.5c-1.1.963-1.405.717-2.417,2.23a7.625,7.625,0,0,0-1.14,3.341v2.014c0,3.154,2.319,7.271,2.319,10.523v1.857c0,3.193-5.07,9-7.271,9.59,1.906-4.952,1.8-14.542-4.952-14.542h-1.4c-2.191,0-5.571,3.645-5.571,6.033v1.4a3.435,3.435,0,0,0,3.252,3.252h1.081c1.287,0,2.79-1.729,2.79-3.1v-.314c0-1.14-.442-2.319-1.552-2.319h-.619c-.9,0-.943.56-1.4,1.081,0-1.808.766-3.1,2.476-3.1h.157c2.663,0,3.527,2.938,3.753,5.1.177,1.887-1.857,6.937-2.6,8.116-1.071,1.68-.717,1.886-2.594,2.82-2.348,1.179-7.733,3.763-10,3.763-2.407,0-2.564-1.493-3.35-3.144A24.225,24.225,0,0,0,272.258-153c5.885-3.94,9.059-12.252,9.943-19.6a42.809,42.809,0,0,0-.206-9.649c2.358,1.277,2.466,1.7,6.5,1.7a7.011,7.011,0,0,0,6.3-4.225,9.786,9.786,0,0,0,.265-7.084c-.55-1.965-1.592-3.793-3.478-4.294Zm-60.5,5.109,1.13.079-1.287.855c-1.081.118-2.859.57-2.938-1.081a6.092,6.092,0,0,0,.314-1.7c0-1.189-1.258-.472-1.857-.157a6.22,6.22,0,0,1-2.938,1.081h-.157a10.761,10.761,0,0,1-4.019-1.081c-.747,0-.806.462-1.552.462h-.157a1.906,1.906,0,0,1-1.552-1.552v-.462a.81.81,0,0,1,.314-.776c.03,1.385,1.268,1.218,2.633,1.228,1.4.01,2.25.933,3.085.933l1.71.059,1.847-.364a3.709,3.709,0,0,1,2.014-.776c.766,0,1.552.413,1.552,1.081,0,.462-.3.413-.3,1.081-.01,1.209.963,1.091,2.162,1.091Zm1.543-4.176.157,1.552h-.619c-.678,0-.983-.472-1.552-.776-1.307-1.5-1.258-1.945-2.938-3.409-1.7-.816-2.407,1.081-4.019,1.081-1.061,0-.9-1.14-1.4-1.7-1.287-.865-1.631-1.091-3.1-.314a1.353,1.353,0,0,1-.776-1.238c0-1.071,2.633-6.043,3.311-7.212,1.081-1.886,2.859-4.549,5.669-4.549h1.552c4.844,0,4.156,6.092,8.293,6.131l-2.879,3.154-.619.924-.776,1.857a13.234,13.234,0,0,0-.462,2.476v1.238a2.383,2.383,0,0,0,.147.786Zm3.1,4.176a3.834,3.834,0,0,1-.924-2.319,8.473,8.473,0,0,1,2.171-6.347c1.631-3.085,6.347-5.286,6.347-10.523,0-1.081-.3-2.486-.924-2.938a2.837,2.837,0,0,1-2.476,3.1c1.513-2.869,1.356-4.4-.462-7.114a1.57,1.57,0,0,1,1.238-.462c1.651,0,2.162,1.592,2.781,2.633.707,1.189,1.425,2.309,2.152,3.419a34.078,34.078,0,0,0,5.325,5.659c2.309,2.1,10.631,7.625,14.5,7.625v.147l-4.638.314a23.618,23.618,0,0,1-13.3-4.176,4.964,4.964,0,0,1-5.109,5.109c.766,1.15,1.543,1.484,1.543,4.638a5.207,5.207,0,0,1-4.638,4.795h-1.7a4.34,4.34,0,0,1-1.4-.314c.658-.58,1.818-.707,2.663-1.67a4.925,4.925,0,0,0,1.356-3.439c0-1.385-.717-2.781-2.014-2.781-2.417,0-2.5,2.948-2.5,4.647Zm-10.8-11.142c1.769-1.022,2.663-.678,4.146-2.162a2.529,2.529,0,0,0,.314-2.319c-1.936-.128-2.859-.57-4.205,1.209a2.9,2.9,0,0,0-.255,3.272Zm19.6,54.089c1.523-.118,3.134-1.022,4.972-1.022h1.238c.54,0,.216.275.924.462v.462c0,1.11-2.3.3-3.252.3-.983,0-1.651,1.081-2.319,1.081-.324,0-.206-.059-.619-.157l.3-.884Zm7.91.992a2.317,2.317,0,0,1,.776.157v.314c-1.1.295-2.329,2.319-3.557,2.319h-.314c-.953,0-1.169-.933-3.1-.933a2.655,2.655,0,0,1,2.319-1.543c.128.472.3.619.924.619h.157c.914,0,1.5-.933,2.79-.933Zm4.647,3.714c.039-.481.452-1.238-.314-1.238-.422,0-1.051,1.7-2.319,1.7h-.924a2.3,2.3,0,0,1-1.857-.776c2.152-.049,2.957-3.252,4.49-3.252a3.826,3.826,0,0,1,3.183,2.073c.776,1.189,1.926,2.044,2.378,2.722-1.739.01-4.028-.059-4.638-1.228Zm-27.236-44.559a5.09,5.09,0,0,0,1.543-.157,2.823,2.823,0,0,1-2.014.776c-2.525,0-3.488-1.4-4.49-1.4-1.788,0-2.564.766-3.9.825l.806.413c-.246.914-3.3,1.857-4.638,1.857l-.7.088.855.845c-1.336,0-2.682-.423-2.967-1.454l4.51-1.641-1.1.029-1.464-.983.088-.128h1.4c3.1,0,6.632-1.857,7.733-1.857C227.021-190.744,226.608-187.953,229.851-187.953Zm9.432-27.393v.462c0,1.837-3.252,2.486-3.252,4.333,0,2.024,2.28,1.032,2.319,2.938-1.326-1.4-4.019-.383-4.019-2.476v-.776c0-.963.462-1.985.462-3.252,0-1.317-1.857-1.631-1.857-2.633v-1.238c0-.816,1.641-2.427,2.319-2.781,1.179,1.759,4.028,3.164,4.028,5.424Zm-1.7-9.285a13.882,13.882,0,0,0,.776,4.333c-.442-.324-1.778-2.781-2.162-2.781-.648,0-2.869,2.083-3.282,2.6a6.426,6.426,0,0,0-1.67,4.205,6.612,6.612,0,0,0,.462,2.476,7.685,7.685,0,0,0-2.781-.462v-2.171a12.686,12.686,0,0,1,9.59-11.918,8.342,8.342,0,0,0-.933,3.714Zm22.127,29.251c-3.93,4.363-6.387,10.739.3,16.556-7.5,0-11.8,4.638-17.794,4.638h-1.543c-4.009,0-9.049-3.557-11.417-5.443a28.707,28.707,0,0,0-5.266-3.085c-2.594-1.14-3.8-1.061-6.986-1.061l1.464-.8.059.157.354-.423,2.447-.383,1.552.059c3.262,0,7.693,2.643,9.747,4.019a6.734,6.734,0,0,0-2.211-2.9c-1.248-1.042-2.437-1.1-3.36-1.749a11.007,11.007,0,0,0,4.127-1.13c.865-.432,2.948-2.063,3.144-2.113a5.075,5.075,0,0,0,5.109,4.176c5.8,0,7.349-6.77,5.109-10.68,2.368,0,3.272-.531,3.871-3.1,1.189.275,3.321,1.661,5.1,2.171a25.252,25.252,0,0,0,6.19,1.081Zm-2.84,23.395c.177.56-.246,4.353-.138,5.119a31.191,31.191,0,0,0,1,4.569,17.105,17.105,0,0,0,4.107,7.035c1.975,1.975,3.842,3.557,7.625,3.665,1.867.059,2.633.983,2.623,2.948a6.378,6.378,0,0,0,.206,2.584,5.024,5.024,0,0,1,.57,2.682,8.954,8.954,0,0,1-3.4.619c-6.829,0-6.839-1.552-10.405-4.6-2.044-1.749-3.724-.9-5.689-1.9-1.336-.678-3.518-2.171-5.257-2.171H247.5c-1.415,0-1.356.707-2.171.924-.118-.462-3.144-4.392-3.852-6.21a23.126,23.126,0,0,1-2.034-8.332v-2.781l.423-4.343c.865.079,1.12.472,1.749.472h1.857c1.3,0,2.908-1.317,3.714-1.857-.54,2.309-2.171,3.911-2.171,7.271v1.081c0,4.8,3,5.551,3.252,6.5.531-.216,1.267.462,2.162.462h1.081c1.484,0,3.871-1.906,3.871-3.4V-163.5c0-.973-.6-1.376-.3-2.014-.874-.236-.619-1.7-2.633-1.7-.648,0-1.1.658-1.238,1.238a1.623,1.623,0,0,1,1.4,1.7,1.989,1.989,0,0,1-1.857,1.857h-.776c-1.474,0-2.476-2.132-2.476-3.714,0-1.985,2.692-5.434,3.911-6.455a15.194,15.194,0,0,1,6.681-3.468Zm12.439-16.124a4,4,0,0,0-3.714-3.714h-.462c-6.141,0-6.2,9.442-2.476,9.442.874,0,1.837-.491,1.857-1.4h-1.4v-.924a1.166,1.166,0,0,1,1.238-1.238h.3a2.12,2.12,0,0,1,1.7,1.552v.924c0,1.5-1.985,2.781-3.714,2.781h-.3c-3.115,0-4.795-3.262-4.795-6.033,0-4.3,4.156-9.128,8.361-9.128h.3c6.77,0,10.985,10.248,10.985,17.332,0,3.7-1.611,9.727-3.1,13.146-.953,2.191-3.252,9.619-3.252,12.537-3.744,0-7.32-3.449-9.01-5.689-2.1-2.79-3.066-6.77-3.066-11.172,0-1.307.3-6.22.924-7.114a8.219,8.219,0,0,0,8.2,8.2c-1.326-2.506-3.4-5.188-3.4-8.2v-1.238c1.572,1.837,4.9,2.506,5.571,0a3.22,3.22,0,0,1-2.171-3.252c3.321,3.822,6.229-2.545,3.871-5.266,0,1.69-.58,2.781-2.171,2.781a2.541,2.541,0,0,1-1.081-.314c0-3.685-.619-4.019-2.319-4.952a8.659,8.659,0,0,1,1.081-.157h.157c.914.01,1.317.717,1.867,1.091" transform="translate(-57.256 228.346)" fill="#f47220" fill-rule="evenodd"/>
    <path id="path1678" d="M201.67-173.386a13.632,13.632,0,0,1,8.43,3.38c-2.643.747-5.208,1.611-7.684,2.564-.246-.1-.5-.206-.747-.3-.246.1-.5.2-.747.3q-3.729-1.43-7.684-2.564A13.575,13.575,0,0,1,201.67-173.386Zm-10.042,4.864a28.154,28.154,0,0,0-5.257,8.018c.265.059.54.108.806.167a83.23,83.23,0,0,1,11.24-6.053C196.217-167.177,193.957-167.894,191.628-168.523Zm-1.877,8.774a90.3,90.3,0,0,1,11.28,3.508c.216-.088.423-.177.639-.255.216.088.432.167.639.255a89.789,89.789,0,0,1,11.28-3.508,81.784,81.784,0,0,0-11.191-5.689c-.246.1-.491.2-.727.295-.246-.1-.481-.2-.727-.295A80.691,80.691,0,0,0,189.752-159.748Zm-4.923,3.282a41.387,41.387,0,0,0-1.4,5.836c1.6.275,3.183.58,4.736.933a81.4,81.4,0,0,1,10.356-5.483,91.179,91.179,0,0,0-10.985-3.164C186.617-157.734,185.714-157.105,184.829-156.467Zm5.925,7.379a90.009,90.009,0,0,1,10.376,3.282l.54-.216.54.216a90.618,90.618,0,0,1,10.376-3.282,81.825,81.825,0,0,0-10.3-5.149c-.206.079-.413.167-.619.246-.206-.079-.413-.167-.619-.246a81.83,81.83,0,0,0-10.3,5.149Zm-7.575.314c-.1.884-.177,1.769-.216,2.653.973-.727,1.975-1.444,3-2.142C185.045-148.439,184.112-148.616,183.178-148.773Zm-.246,5.031a34.261,34.261,0,0,0,.275,3.783q2.4.4,4.746.914a82.059,82.059,0,0,1,10.67-5.689,90.657,90.657,0,0,0-10.11-2.967c-1.955,1.258-3.822,2.574-5.581,3.96Zm7.6,5.3a91.182,91.182,0,0,1,10.7,3.37l.442-.177.442.177a91.182,91.182,0,0,1,10.7-3.37,81.231,81.231,0,0,0-10.621-5.335l-.521.206-.521-.206A81.23,81.23,0,0,0,190.528-138.447Zm-7,.432c.118.58.246,1.14.393,1.7.6-.432,1.209-.865,1.828-1.287C185.016-137.749,184.279-137.887,183.532-138.014Zm.973,3.586a20.024,20.024,0,0,0,3.429,6.17,82.24,82.24,0,0,1,10.8-5.768,88.963,88.963,0,0,0-10.425-3.036C186.991-136.207,185.733-135.332,184.5-134.428Zm4.726,7.556c2.967,2.83,7.055,4.589,12.439,4.677,5.384-.088,9.472-1.847,12.439-4.677a81.319,81.319,0,0,0-12.017-6.2l-.423.167-.423-.167A81.323,81.323,0,0,0,189.231-126.872Zm22.481-41.65a28.154,28.154,0,0,1,5.257,8.018c-.265.059-.54.108-.806.167a83.232,83.232,0,0,0-11.24-6.053c2.2-.786,4.471-1.5,6.789-2.132Zm6.8,12.056a41.389,41.389,0,0,1,1.4,5.836c-1.6.275-3.183.58-4.736.933a81.4,81.4,0,0,0-10.356-5.483,91.178,91.178,0,0,1,10.985-3.164C216.723-157.734,217.627-157.105,218.511-156.467Zm1.66,7.693c.1.884.177,1.769.216,2.653-.973-.727-1.975-1.444-3-2.142C218.3-148.439,219.228-148.616,220.172-148.773Zm.236,5.031a34.268,34.268,0,0,1-.275,3.783q-2.4.4-4.746.914a82.057,82.057,0,0,0-10.671-5.689,90.66,90.66,0,0,1,10.11-2.967c1.955,1.258,3.822,2.574,5.581,3.96Zm-.6,5.728c-.118.58-.246,1.14-.393,1.7-.6-.432-1.209-.865-1.828-1.287C218.324-137.749,219.071-137.887,219.808-138.014Zm-.973,3.586a20.024,20.024,0,0,1-3.429,6.17,81.617,81.617,0,0,0-10.8-5.768,88.966,88.966,0,0,1,10.425-3.036q1.975,1.282,3.8,2.633" transform="translate(-48.992 213.887)" fill="#5e272a" fill-rule="evenodd"/>
  </g>
</svg>
