<svg id="Слой_1" data-name="Слой 1" xmlns="http://www.w3.org/2000/svg" viewBox="0 0 399.16 163.94"><defs><style>.cls-1{fill:#81bb29;}.cls-1,.cls-2,.cls-3{fill-rule:evenodd;}.cls-2{fill:#f47216;}.cls-3{fill:#5e272a;}.cls-4{isolation:isolate;}.cls-5{fill:#fff;}</style></defs><g id="g10"><g id="g12"><path id="path14" class="cls-1" d="M832.5,562.29c56.09,23,200.68,24.53,253.75,4.28-32.14,19-199.38,22.9-253.26-.76L831.13,570a145.89,145.89,0,0,0,43.8,12.16c-14.8-1.32-29.68-3.89-44.82-9.9l-1.5,3.36c11.16,4.62,16.58,7.1,29.37,9.08-11.24-.42-19.88-2.63-30.39-6.87l-1.65,3.67c5.47,2.53,8,3.89,14.19,4.78a33.51,33.51,0,0,1-14.74-3.45l.15-.41-1.6,3.61a40.7,40.7,0,0,0,6.8,3.07c-2.53-.56-4.64-.79-7.19-2.06l.11-.46-.76,1.69,4.84-12.89a124.58,124.58,0,0,1-16-5.66l-1.13,2a18.55,18.55,0,0,0,12,5.81c-4.65-.11-9.06-1-12.89-4.2l-1.52,2.64c2.48,2.51,3.93,3.92,7.73,4.6a10.46,10.46,0,0,1-8.7-2.91l-1.67,2.9c1.12,1.36,1.77,2.12,3.57,2.41a4.2,4.2,0,0,1-4.13-1.45L803.57,584a5.73,5.73,0,0,0,1.55,1.7,3.74,3.74,0,0,1-2-1l-3.31,5.74L806.48,577h0l.89-1.85c-9-3.51-18-9.18-27-18,.65,8,3.2,16.61,8.53,26.24-4.73.52-10.18,1.8-16.7,1a105.09,105.09,0,0,0,40.44,25.24,77.59,77.59,0,0,1-14.32-13.07,143.44,143.44,0,0,0,40.56,10.8A52.23,52.23,0,0,1,821.06,595c66.8,26,215.68,26.68,275.09-.37q-3.81-10.23-7.65-20.47c-10.79,5.84-23.24,8.36-36,10.18,14.67-3.19,27.28-7.62,36.92-13.82l2,4.58c4.66-1.35,7.28-2.28,11.35-5.67-4,3.65-6.51,5.85-10.51,7.56l8.07,18.28c-1.63,3-4.85,6.11-9.17,9.17a77.67,77.67,0,0,0,27.12-11.3l-.75-1.72a39,39,0,0,1-15.64,5.22,34.53,34.53,0,0,0,15-6.68l-1.28-2.93a19.46,19.46,0,0,1-10.56,3.56c4.72-1.19,6.65-2.63,9.87-5.15l-1.78-4a7.8,7.8,0,0,1-5.41,2c2.44-.57,3.28-1.42,5-3l-5.64-12.92,16,25.12q-5.73,8.28-17.46,14.57c12.9-2.51,26-8.08,39.56-20-6.12.92-11.84.74-16.94-1,1.52-2.06,3-4.1,4.37-6.08a42,42,0,0,1-12.65,1.89,37.07,37.07,0,0,0,13.82-3.59c1.66-2.43,3.15-4.79,4.44-7-6.22,3.6-13.09,5.71-20.2,7.21,7.5-2,14.8-4.85,21.63-10.24l.13.14a39.3,39.3,0,0,0,2.23-5.11,68.25,68.25,0,0,1-25,9.8c9.64-2.81,20.75-9.81,32.4-18.33-4.25,10.25-9,20-15.32,28.62,8,1.44,16.68,1,26-.88-15,14.82-37.92,25-66.3,32.15q8.67-6,11.3-11.55c-9.49,5.14-20.32,8.74-32.14,11.18-.55-1.59-1.1-3.19-1.63-4.78-43.53,9.74-172.45,12.34-215.32-.76l.12,5.52c-13.88-1.42-28-4.69-42.2-8.78A75.07,75.07,0,0,0,835,619.71c-27-6.09-52.4-16.68-74.08-37.17q14.07.26,22.6-2.51c-3.68-7.24-6-17.7-7.66-29.64,10.5,9.32,21.36,17.08,32.85,22.1l2.65-5.36c5.67,2.33,11.39,4.36,17.12,6.08Zm-25.16,12.76h0l.44-.89Z" transform="translate(-760.89 -455.77)"/><path id="path18" class="cls-2" d="M858.86,499.45c3.73-2,10.08-.72,10.08,3.77v1.25a4.2,4.2,0,0,1-1.47,3.36c0-2.26-1.4-4.2-3.36-4.2h-1.05c-1.81,0-3.57,2.68-3.57,4.83,0,2.92,3.26,5.45,6.29,5.45a11.75,11.75,0,0,0,7.19-2.48c1.37-1,1.85-4.3,2.38-6.21,1-3.52,2.82-10.37,2.82-14.4,0-2-2.48-5.16-4.42-5.67l-.62,1.06c-.44.26-.94.17-1.47-.42L861,475.69l.22,5.69c-5.42-1.23-4.4-2.72-12-2.72l-1.88.24a6.53,6.53,0,0,1,3.28,6.57,6.72,6.72,0,0,0-6.44-.09l3.59,3.4c-2.29-2.17-9.3-2.36-11.74-.22,2.88-4.31,6.32-6.55,9.86-7.35-3.34-2.84-9.18-.95-13-.63,2.92-2.53,11.43-5.88,17-5.88h2.88c1.86,0,3.45.71,5,.84-.2-2.48-1.71-4-3.15-5.25,3,.07,8,3.2,9.83,4.65a21.91,21.91,0,0,1,6.54,7.74l2.87-3.22,4.39,8.51a26.73,26.73,0,0,0-2.39-11.84c-.81-2.09-4.37-7.21-6.33-7.73,1.8,1.52,3.1,5,1.89,7.14a17.58,17.58,0,0,0-6.25-6.34,18.77,18.77,0,0,0-11.6-3.31c-4,0-10.27,2.16-11.76,4.2,2.56-1.07,6.26-2,8.81,1.25h-1c-6.14,0-15.63,4.62-19.7,7.19-3.34,2.11-12.73,10-13.69,13.6,6.25-3,9-5.25,18.48-5.25a28.82,28.82,0,0,0-3.71,1.9,30,30,0,0,0-9,8c-2.86,4.25-5.74,10-5.74,17,.94-1.08,2.5-5,3.52-6.56a49.49,49.49,0,0,1,4.16-5.91c4-4.71,8.43-7.07,14.56-7.07a10.74,10.74,0,0,1,10.92,10.5c0,1.08-.7,4.2-1.68,4.2-.29,0-2.45-1.3-3.14-1.47,1,1.55,2.16,2.29,3.32,4.44a17.25,17.25,0,0,1,1.5,6.27v1.2l-.38,2.73c-1-1.06-1.15-2.08-2.51-3.42-.72-.71-2.56-2-3.84-2,1.49,1.3,1.91,1,3.28,3a10.26,10.26,0,0,1,1.56,4.54V527c0,4.28-3.15,9.87-3.15,14.28v2.54c0,4.33,6.88,12.21,9.87,13C851.63,550,851.74,537,860.94,537h1.89c3,0,7.56,5,7.56,8.19v1.89a4.65,4.65,0,0,1-4.41,4.41h-1.47c-1.74,0-3.77-2.34-3.77-4.2v-.42c0-1.55.6-3.15,2.11-3.15h.89c1.22,0,1.28.76,1.89,1.47,0-2.46-1-4.2-3.36-4.2h-.21c-3.62,0-4.79,4-5.1,6.92-.24,2.56,2.52,9.41,3.54,11,1.45,2.28,1,2.56,3.52,3.83,3.18,1.6,10.49,5.1,13.57,5.1,3.27,0,3.48-2,4.55-4.26a33.13,33.13,0,0,1,3-5.6c-8-5.35-12.29-16.63-13.51-26.6-.57-4.78-.13-8.36.28-13.1-3.2,1.74-3.34,2.31-8.82,2.31a9.52,9.52,0,0,1-8.55-5.73c-1.49-3.16-1.27-6.3-.36-9.62.76-2.66,2.16-5.14,4.72-5.82ZM941,506.38l-1.54.11,1.75,1.16c1.47.16,3.88.77,4-1.47a8.58,8.58,0,0,1-.43-2.31c0-1.61,1.71-.64,2.52-.21a8.53,8.53,0,0,0,4,1.47h.21a14.54,14.54,0,0,0,5.45-1.47c1,0,1.1.63,2.11.63h.21a2.57,2.57,0,0,0,2.11-2.11v-.63a1.08,1.08,0,0,0-.43-1.05c0,1.88-1.72,1.65-3.57,1.67s-3,1.26-4.19,1.26l-2.32.08-2.5-.49a5.06,5.06,0,0,0-2.74-1c-1,0-2.1.56-2.1,1.46,0,.63.42.56.42,1.47,0,1.64-1.32,1.48-2.94,1.48Zm-2.11-5.67-.21,2.07h.84c.9,0,1.33-.64,2.1-1,1.78-2,1.71-2.64,4-4.63,2.31-1.11,3.28,1.47,5.45,1.47,1.44,0,1.23-1.55,1.9-2.31,1.74-1.17,2.21-1.48,4.2-.43a1.8,1.8,0,0,0,1.05-1.68c0-1.45-3.57-8.2-4.49-9.78-1.47-2.56-3.88-6.18-7.7-6.18h-2.1c-6.58,0-5.64,8.27-11.26,8.32l3.91,4.28.84,1.26,1.05,2.52a17.46,17.46,0,0,1,.63,3.36v1.68a2.74,2.74,0,0,1-.2,1.06Zm-4.2,5.67a5.16,5.16,0,0,0,1.25-3.15c0-3.66-.58-5.78-2.94-8.61-2.22-4.19-8.62-7.17-8.62-14.28,0-1.47.42-3.37,1.26-4,0,2.34,1.36,4,3.36,4.2-2.06-3.89-1.84-6,.62-9.65a2.18,2.18,0,0,0-1.68-.63c-2.24,0-2.93,2.16-3.77,3.58-1,1.61-1.93,3.13-2.92,4.64-1.65,2.56-5,5.61-7.23,7.68-3.14,2.85-14.42,10.34-19.68,10.34v.2l6.3.43a32,32,0,0,0,18-5.67,6.75,6.75,0,0,0,6.56,6.94,2.29,2.29,0,0,0,.37,0c-1,1.56-2.1,2-2.1,6.29,0,3.17,3.28,6.51,6.29,6.51H932a5.59,5.59,0,0,0,1.89-.43c-.89-.79-2.48-1-3.61-2.27a6.7,6.7,0,0,1-1.84-4.66c0-1.88,1-3.78,2.73-3.78,3.29,0,3.4,4,3.4,6.31Zm14.65-15.12c-2.4-1.39-3.61-.92-5.62-2.93a3.43,3.43,0,0,1-.43-3.15c2.63-.17,3.88-.77,5.71,1.64a3.91,3.91,0,0,1,.34,4.44Zm-26.57,73.4c-2.06-.16-4.25-1.39-6.74-1.39h-1.68c-.74,0-.3.38-1.26.63v.63c0,1.5,3.12.41,4.42.41s2.24,1.47,3.14,1.47c.44,0,.28-.08.84-.22l-.41-1.2ZM912,566a3.17,3.17,0,0,0-1,.21v.43c1.49.4,3.16,3.14,4.82,3.14h.43c1.29,0,1.59-1.26,4.2-1.26a3.62,3.62,0,0,0-3.15-2.1c-.17.64-.41.84-1.25.84h-.27c-1.23,0-2-1.26-3.79-1.26Zm-6.29,5c-.06-.66-.63-1.68.42-1.68.58,0,1.43,2.3,3.15,2.3h1.25a3.11,3.11,0,0,0,2.52-1c-2.92-.07-4-4.41-6.09-4.41a5.26,5.26,0,0,0-4.32,2.81c-1,1.61-2.61,2.77-3.23,3.69,2.32.06,5.43-.09,6.32-1.67Zm37-60.47a6.79,6.79,0,0,1-2.1-.21,3.85,3.85,0,0,0,2.74,1c3.42,0,4.74-1.89,6.09-1.89,2.43,0,3.48,1,5.29,1.12l-1.09.56c.33,1.24,4.49,2.52,6.31,2.52l.94.12-1.16,1.14c1.82,0,3.64-.57,4-2l-6.16-2.12h1.49l2-1.33-.12-.17h-1.89c-4.2,0-9-2.52-10.5-2.52-2.09,0-1.53,3.82-5.91,3.82Zm-12.89-37.13V474c0,2.5,4.42,3.38,4.42,5.88,0,2.75-3.1,1.4-3.15,4,1.8-1.89,5.45-.52,5.45-3.36v-1.06c0-1.31-.62-2.7-.62-4.42s2.52-2.21,2.52-3.57v-1.72c0-1.11-2.23-3.29-3.15-3.77-1.6,2.38-5.47,4.29-5.47,7.36Zm2.31-12.63c0,2.78-.45,3.34-1,5.88.6-.44,2.41-3.78,2.93-3.78.88,0,3.89,2.83,4.45,3.54a8.61,8.61,0,0,1,1.64,9.06,10.83,10.83,0,0,1,3.78-.62v-2.92c0-8.13-6.42-14.63-13-16.17a11.07,11.07,0,0,1,1.27,5Zm-30,39.69c5.34,5.92,8.67,14.57-.42,22.47,10.17,0,16,6.29,24.14,6.29H928c5.44,0,12.28-4.83,15.49-7.39a39.67,39.67,0,0,1,7.15-4.18c3.52-1.55,5.16-1.44,9.48-1.44l-2-1.08-.08.21-.48-.57-3.32-.52-2.1.08c-4.43,0-10.44,3.58-13.23,5.45a9.16,9.16,0,0,1,3-3.93c1.71-1.42,3.31-1.5,4.56-2.38a15,15,0,0,1-5.6-1.53c-1.17-.59-4-2.8-4.27-2.87a6.87,6.87,0,0,1-7,5.7c-7.87,0-10-9.19-6.93-14.49-3.22,0-4.44-.72-5.26-4.2-1.61.37-4.5,2.25-6.92,2.94a33.72,33.72,0,0,1-8.4,1.47ZM906,532.22c-.24.76.33,5.9.18,6.94a39.87,39.87,0,0,1-1.36,6.2,23,23,0,0,1-5.57,9.55c-2.68,2.68-5.21,4.83-10.35,5-2.53.08-3.57,1.34-3.56,4a8.5,8.5,0,0,1-.28,3.51,6.87,6.87,0,0,0-.77,3.64c2.11.56,2.19.84,4.61.84,9.27,0,9.28-2.11,14.12-6.24,2.78-2.37,5.06-1.23,7.72-2.57,1.82-.92,4.78-3,7.14-3h.86c1.92,0,1.84,1,2.94,1.25.16-.62,4.26-6,5.23-8.42,1.21-3.11,2.76-7.07,2.76-11.31v-3.72l-.57-5.9c-1.18.11-1.52.64-2.38.64H924.2c-1.76,0-3.94-1.78-5-2.52.74,3.14,2.95,5.31,2.95,9.87v1.47c0,6.52-4.07,7.53-4.41,8.82-.72-.29-1.72.63-2.94.63h-1.46c-2,0-5.26-2.59-5.26-4.61v-2.51c0-1.32.82-1.87.43-2.74,1.19-.32.84-2.3,3.57-2.3.88,0,1.5.89,1.68,1.68a2.21,2.21,0,0,0-1.89,2.3,2.69,2.69,0,0,0,2.52,2.52h1.05c2,0,3.36-2.89,3.36-5,0-2.69-3.65-7.37-5.3-8.76a20.7,20.7,0,0,0-9.06-4.7Zm-16.9-21.85a5.44,5.44,0,0,1,5-5h.64c8.33,0,8.41,12.81,3.36,12.81-1.19,0-2.5-.67-2.52-1.89h1.89V515a1.59,1.59,0,0,0-1.49-1.68h-.62a2.9,2.9,0,0,0-2.3,2.11v1.25c0,2,2.69,3.78,5,3.78h.42c4.23,0,6.51-4.43,6.51-8.19,0-5.84-5.64-12.39-11.33-12.39h-.43c-9.19,0-14.91,13.91-14.91,23.52,0,5,2.19,13.2,4.2,17.84,1.3,3,4.42,13.06,4.42,17,5.08,0,9.93-4.68,12.22-7.72,2.86-3.79,4.16-9.19,4.16-15.16,0-1.78-.41-8.44-1.25-9.66a11.14,11.14,0,0,1-11.13,11.14c1.8-3.4,4.62-7,4.62-11.14V524c-2.13,2.5-6.65,3.4-7.56,0a4.33,4.33,0,0,0,2.94-4.41c-4.51,5.19-8.46-3.45-5.26-7.15,0,2.3.79,3.78,2.94,3.78a3.35,3.35,0,0,0,1.46-.43c0-5,.84-5.45,3.15-6.72a11.82,11.82,0,0,0-1.47-.21h-.21c-1.24,0-1.77,1-2.52,1.48" transform="translate(-760.89 -455.77)"/><path id="path1676" class="cls-2" d="M1078.9,499.45c-3.73-2-10.08-.72-10.08,3.77v1.25a4.26,4.26,0,0,0,1.47,3.36c0-2.26,1.4-4.2,3.36-4.2h1c1.81,0,3.57,2.68,3.57,4.83,0,2.92-3.26,5.45-6.29,5.45a11.8,11.8,0,0,1-7.19-2.48c-1.37-1-1.85-4.3-2.38-6.21-1-3.52-2.82-10.37-2.82-14.4,0-2,2.48-5.16,4.42-5.67l.62,1.06c.44.26.94.17,1.47-.42l10.69-10.1-.22,5.69c5.42-1.23,4.4-2.72,12-2.72l1.88.24a6.53,6.53,0,0,0-3.28,6.57,6.72,6.72,0,0,1,6.44-.09l-3.51,3.4c2.29-2.17,9.3-2.36,11.74-.22-2.88-4.31-6.32-6.55-9.86-7.35,3.34-2.84,9.18-.95,13-.63-2.92-2.53-11.43-5.88-17-5.88h-3c-1.87,0-3.45.71-5,.84.2-2.48,1.71-4,3.15-5.25-3,.07-8,3.2-9.83,4.65a22.28,22.28,0,0,0-6.56,7.71l-2.86-3.22-4.39,8.51a27,27,0,0,1,2.39-11.84c.81-2.09,4.37-7.21,6.33-7.73-1.8,1.52-3.11,5-1.89,7.14a17.51,17.51,0,0,1,6.25-6.34,18.8,18.8,0,0,1,11.6-3.31c4,0,10.27,2.16,11.76,4.2-2.56-1.07-6.27-2-8.81,1.25h1c6.13,0,15.61,4.62,19.69,7.19,3.35,2.11,12.74,10,13.7,13.6-6.26-3-9-5.25-18.48-5.25a27.74,27.74,0,0,1,3.71,1.93,29.73,29.73,0,0,1,9,8c2.86,4.24,5.74,10,5.74,16.94-.93-1.08-2.49-5-3.52-6.56a49.49,49.49,0,0,0-4.16-5.91c-4-4.71-8.42-7.07-14.56-7.07a10.76,10.76,0,0,0-10.92,10.5c0,1.08.71,4.2,1.68,4.2.3,0,2.46-1.3,3.15-1.47-1,1.55-2.16,2.29-3.32,4.44a17.06,17.06,0,0,0-1.51,6.27v1.26l.39,2.73c1-1.06,1.15-2.08,2.51-3.42.72-.71,2.56-2,3.84-2-1.5,1.3-1.91,1-3.28,3a10.51,10.51,0,0,0-1.55,4.54V527c0,4.28,3.15,9.87,3.15,14.28v2.54c0,4.33-6.88,12.21-9.87,13,2.59-6.72,2.44-19.73-6.72-19.73h-1.89c-3,0-7.56,5-7.56,8.19v1.89a4.67,4.67,0,0,0,4.4,4.38h1.47c1.74,0,3.78-2.34,3.78-4.2v-.42c0-1.55-.6-3.15-2.1-3.15h-.84c-1.23,0-1.28.76-1.9,1.47,0-2.46,1-4.2,3.36-4.2h.23c3.61,0,4.78,4,5.09,6.92.24,2.56-2.52,9.41-3.53,11-1.46,2.28-1,2.56-3.52,3.83-3.19,1.6-10.5,5.1-13.58,5.1-3.26,0-3.48-2-4.54-4.26a32.43,32.43,0,0,0-3-5.6c8-5.35,12.3-16.63,13.5-26.6.57-4.78.13-8.36-.28-13.1,3.2,1.74,3.34,2.31,8.82,2.31a9.51,9.51,0,0,0,8.55-5.73c1.49-3.16,1.27-6.3.36-9.62-.75-2.66-2.16-5.14-4.72-5.82Zm-82.09,6.93,1.53.11-1.75,1.16c-1.46.16-3.88.77-4-1.47a8.19,8.19,0,0,0,.42-2.31c0-1.61-1.7-.64-2.52-.21a8.35,8.35,0,0,1-4,1.47h-.22a14.64,14.64,0,0,1-5.45-1.47c-1,0-1.09.63-2.11.63h-.21a2.59,2.59,0,0,1-2.11-2.11v-.63a1.12,1.12,0,0,1,.43-1.05c0,1.88,1.72,1.65,3.57,1.67s3.06,1.26,4.19,1.26l2.32.08,2.51-.49a5.06,5.06,0,0,1,2.73-1c1,0,2.11.56,2.11,1.46,0,.63-.42.56-.42,1.47,0,1.64,1.31,1.48,2.94,1.48Zm2.09-5.67.21,2.11h-.84c-.92,0-1.33-.64-2.1-1-1.78-2-1.71-2.64-4-4.63-2.31-1.11-3.27,1.47-5.45,1.47-1.44,0-1.23-1.55-1.9-2.31-1.74-1.17-2.21-1.48-4.2-.43a1.82,1.82,0,0,1-1-1.68c0-1.45,3.57-8.2,4.49-9.78,1.47-2.56,3.88-6.18,7.7-6.18h2.1c6.58,0,5.64,8.27,11.26,8.32l-3.91,4.28-.84,1.26-1,2.52a17.46,17.46,0,0,0-.63,3.36v1.68a3.49,3.49,0,0,0,.2,1.06Zm4.2,5.67a5.28,5.28,0,0,1-1.25-3.15c0-3.66.58-5.78,2.94-8.61,2.22-4.19,8.62-7.17,8.62-14.28,0-1.47-.42-3.37-1.26-4,0,2.34-1.36,4-3.36,4.2,2.06-3.89,1.84-6-.62-9.65a2.2,2.2,0,0,1,1.68-.63c2.24,0,2.93,2.16,3.77,3.58,1,1.61,1.93,3.13,2.92,4.64,1.65,2.56,4.93,5.61,7.23,7.68,3.13,2.85,14.42,10.34,19.68,10.34v.2l-6.3.43a32,32,0,0,1-18.05-5.67,6.74,6.74,0,0,1-6.55,6.94,2.41,2.41,0,0,1-.38,0c1,1.56,2.09,2,2.09,6.29,0,3.17-3.28,6.51-6.29,6.51h-2.31a5.75,5.75,0,0,1-1.92-.42c.89-.79,2.46-1,3.61-2.27a6.61,6.61,0,0,0,1.84-4.66c0-1.88-1-3.78-2.73-3.78-3.28,0-3.39,4-3.39,6.31Zm-14.65-15.12c2.4-1.39,3.61-.92,5.62-2.93a3.43,3.43,0,0,0,.43-3.15c-2.63-.17-3.88-.77-5.71,1.64a4,4,0,0,0-.34,4.44Zm26.6,73.4c2.06-.16,4.25-1.39,6.74-1.39h1.68c.74,0,.3.38,1.26.63v.63c0,1.5-3.12.41-4.42.41s-2.24,1.47-3.14,1.47c-.44,0-.28-.08-.84-.22l.41-1.2Zm10.69,1.35a3.36,3.36,0,0,1,1,.21v.43c-1.49.4-3.16,3.14-4.82,3.14h-.43c-1.29,0-1.59-1.26-4.2-1.26a3.63,3.63,0,0,1,3.15-2.1c.17.64.41.84,1.25.84h.21c1.24,0,2-1.26,3.79-1.26Zm6.31,5c0-.66.61-1.68-.43-1.68-.57,0-1.43,2.3-3.15,2.3h-1.25a3.13,3.13,0,0,1-2.52-1c2.92-.07,4-4.41,6.09-4.41a5.26,5.26,0,0,1,4.32,2.81c1.06,1.61,2.62,2.77,3.23,3.69-2.36,0-5.47-.08-6.29-1.66Zm-37-60.47a6.67,6.67,0,0,0,2.09-.21,3.81,3.81,0,0,1-2.73,1c-3.43,0-4.74-1.89-6.1-1.89-2.42,0-3.48,1-5.29,1.12l1.09.56c-.25,1.33-4.37,2.66-6.21,2.66l-.95.12,1.16,1.14c-1.81,0-3.64-.57-4-2l6.1-2.26h-1.5l-2-1.33.12-.17h1.91c4.2,0,9-2.52,10.49-2.52,2.06,0,1.51,3.82,5.9,3.82Zm12.8-37.17V474c0,2.5-4.42,3.38-4.42,5.88,0,2.75,3.1,1.4,3.15,4-1.8-1.89-5.45-.52-5.45-3.36v-1c0-1.31.62-2.7.62-4.42s-2.52-2.21-2.52-3.57v-1.72c0-1.11,2.23-3.29,3.15-3.77,1.6,2.38,5.47,4.29,5.47,7.36Zm-2.23-12.59c0,2.78.45,3.34,1,5.88-.6-.44-2.41-3.78-2.93-3.78-.88,0-3.89,2.83-4.45,3.54a8.72,8.72,0,0,0-2.27,5.7,9,9,0,0,0,.63,3.36,10.79,10.79,0,0,0-3.78-.62v-2.92c0-8.13,6.42-14.63,13-16.17a11.33,11.33,0,0,0-1.27,5Zm30,39.69c-5.34,5.92-8.67,14.57.41,22.47-10.17,0-16,6.29-24.15,6.29h-2.09c-5.44,0-12.28-4.83-15.49-7.39a39,39,0,0,0-7.15-4.18c-3.52-1.55-5.16-1.44-9.48-1.44l2-1.08.08.21.48-.57,3.32-.52,2.1.08c4.43,0,10.44,3.58,13.23,5.45a9,9,0,0,0-3-3.93c-1.69-1.42-3.31-1.5-4.56-2.38a15,15,0,0,0,5.6-1.53c1.17-.59,4-2.8,4.27-2.87a6.87,6.87,0,0,0,6.95,5.7c7.87,0,10-9.19,6.93-14.49,3.22,0,4.44-.72,5.26-4.2,1.61.37,4.5,2.25,6.92,2.94a33.8,33.8,0,0,0,8.4,1.47Zm-3.86,31.75c.24.76-.33,5.9-.18,6.94a42.32,42.32,0,0,0,1.36,6.2,23.11,23.11,0,0,0,5.57,9.55c2.68,2.68,5.21,4.83,10.35,5,2.53.08,3.57,1.34,3.56,4a8.67,8.67,0,0,0,.28,3.51,6.78,6.78,0,0,1,.77,3.64c-2.11.56-2.19.84-4.61.84-9.27,0-9.28-2.11-14.12-6.24-2.78-2.37-5.06-1.23-7.72-2.57-1.82-.92-4.78-3-7.14-3H1019c-1.92,0-1.84,1-2.94,1.25-.16-.62-4.27-6-5.23-8.42-1.21-3.11-2.76-7.07-2.76-11.31v-3.72l.57-5.9c1.18.11,1.52.64,2.38.64h2.52c1.76,0,3.94-1.78,5-2.52-.74,3.14-3,5.31-3,9.87v1.47c0,6.52,4.07,7.53,4.41,8.82.72-.29,1.72.63,2.94.63h1.46c2,0,5.26-2.59,5.26-4.61v-2.51c0-1.32-.82-1.87-.42-2.74-1.18-.32-.84-2.3-3.57-2.3-.88,0-1.49.89-1.68,1.68a2.19,2.19,0,0,1,1.89,2.3,2.68,2.68,0,0,1-2.52,2.52h-1.05c-2,0-3.36-2.89-3.36-5,0-2.69,3.65-7.37,5.31-8.76a20.65,20.65,0,0,1,9.06-4.7Zm16.88-21.88a5.43,5.43,0,0,0-5-5H1043c-8.34,0-8.42,12.81-3.36,12.81,1.18,0,2.49-.67,2.52-1.89h-1.9V515a1.6,1.6,0,0,1,1.5-1.68h.6a2.87,2.87,0,0,1,2.3,2.11v1.25c0,2-2.69,3.78-5,3.78h-.41c-4.23,0-6.51-4.43-6.51-8.19,0-5.84,5.64-12.39,11.35-12.39h.41c9.19,0,14.91,13.91,14.91,23.52,0,5-2.19,13.2-4.2,17.84-1.29,3-4.41,13.06-4.41,17-5.08,0-9.94-4.68-12.23-7.72-2.85-3.79-4.16-9.19-4.16-15.16,0-1.78.41-8.44,1.25-9.66a11.16,11.16,0,0,0,11.06,11.16c-1.8-3.4-4.62-7-4.62-11.14V524c2.14,2.5,6.66,3.4,7.56,0a4.35,4.35,0,0,1-2.94-4.41c4.5,5.19,8.45-3.45,5.25-7.15,0,2.3-.79,3.78-3,3.78a3.43,3.43,0,0,1-1.46-.43c0-5-.84-5.45-3.15-6.72a12.39,12.39,0,0,1,1.47-.21h.21c1.24,0,1.79,1,2.53,1.48" transform="translate(-760.89 -455.77)"/><path id="path1678" class="cls-3" d="M968.1,510.78a18.44,18.44,0,0,1,11.44,4.58c-3.59,1-7.07,2.19-10.43,3.48l-1-.41-1,.41q-5.07-1.94-10.43-3.48A18.41,18.41,0,0,1,968.1,510.78Zm-13.63,6.6a38.22,38.22,0,0,0-7.13,10.88l1.09.22a114,114,0,0,1,15.31-8.26q-4.53-1.59-9.27-2.89Zm-2.54,11.9a122,122,0,0,1,15.3,4.76c.3-.12.58-.24.87-.34.29.12.59.22.87.34a122,122,0,0,1,15.3-4.76,110.45,110.45,0,0,0-15.18-7.72l-1,.4-1-.4a110.5,110.5,0,0,0-15.16,7.67Zm-6.68,4.46a56.7,56.7,0,0,0-1.9,7.92c2.18.37,4.32.78,6.43,1.26a111.6,111.6,0,0,1,14.05-7.44,126.12,126.12,0,0,0-14.9-4.29c-1.26.78-2.48,1.59-3.68,2.5Zm8,10a123.68,123.68,0,0,1,14.08,4.45l.73-.29.73.29a127,127,0,0,1,14.08-4.45,111.49,111.49,0,0,0-14-7l-.84.34-.84-.34a112.86,112.86,0,0,0-14,7Zm-10.28.43q-.21,1.8-.3,3.6l4.07-3-3.73-.65Zm-.34,6.82a46.41,46.41,0,0,0,.38,5.14c2.17.36,4.32.78,6.44,1.24a110.4,110.4,0,0,1,14.48-7.72,121,121,0,0,0-13.72-4c-2.66,1.71-5.19,3.49-7.58,5.37Zm10.31,7.19a124.73,124.73,0,0,1,14.52,4.57l.6-.24.6.24a125.34,125.34,0,0,1,14.52-4.57,110.28,110.28,0,0,0-14.41-7.24l-.71.28-.71-.28a112.09,112.09,0,0,0-14.37,7.2Zm-9.49.59c.16.78.33,1.54.53,2.3.81-.58,1.64-1.17,2.48-1.74a24,24,0,0,0-3-.55Zm1.32,4.86a27.34,27.34,0,0,0,4.65,8.38,111.92,111.92,0,0,1,14.65-7.83,121.1,121.1,0,0,0-14.14-4.12c-1.75,1.12-3.46,2.31-5.12,3.53Zm6.41,10.26c4,3.84,9.57,6.22,16.88,6.34,7.31-.12,12.85-2.5,16.88-6.34a110.8,110.8,0,0,0-16.31-8.42l-.57.23-.57-.23a111.15,111.15,0,0,0-16.27,8.38Zm30.56-56.56a37.8,37.8,0,0,1,7.13,10.88l-1.09.22a112.55,112.55,0,0,0-15.26-8.21q4.49-1.59,9.22-2.89ZM991,533.69a54,54,0,0,1,1.9,7.92c-2.18.37-4.32.78-6.43,1.26a110.92,110.92,0,0,0-14-7.44,126.67,126.67,0,0,1,14.9-4.29c1.25.83,2.46,1.64,3.67,2.55Zm2.26,10.44c.13,1.2.24,2.4.29,3.6q-2-1.49-4.07-2.91c1.23-.24,2.49-.48,3.77-.69Zm.32,6.82a44.11,44.11,0,0,1-.38,5.14c-2.16.36-4.31.78-6.44,1.24a109.14,109.14,0,0,0-14.48-7.72,121.59,121.59,0,0,1,13.72-4c2.66,1.71,5.19,3.49,7.58,5.37Zm-.8,7.83c-.16.78-.33,1.54-.53,2.3-.81-.58-1.64-1.17-2.48-1.74A24.82,24.82,0,0,1,992.74,558.78Zm-1.32,4.86a26.93,26.93,0,0,1-4.65,8.38,110.66,110.66,0,0,0-14.65-7.83,122.25,122.25,0,0,1,14.14-4.12q2.7,1.74,5.16,3.57" transform="translate(-760.89 -455.77)"/></g></g><g class="cls-4"><path class="cls-5" d="M866.06,594.22a3.71,3.71,0,0,0,.21,1.92,3,3,0,0,0,2.25,1.62c1.61.31,2.73-.34,3-1.71a2,2,0,0,0-.56-1.89,15.46,15.46,0,0,0-3-1.6,7.77,7.77,0,0,1-3.12-2.06,6,6,0,0,1-1.17-5.09c.69-3.78,3.73-5.66,7.87-4.87,2.67.51,4.53,1.85,5.32,3.91a7.41,7.41,0,0,1,.51,3.13l-4.55-.28a2.35,2.35,0,0,0-2.19-2.75,2.05,2.05,0,0,0-2.58,1.51,1.72,1.72,0,0,0,.7,1.76c.38.3.38.3,2.74,1.36a9.34,9.34,0,0,1,3.15,2,5.87,5.87,0,0,1,1.35,5.43,6.81,6.81,0,0,1-2.3,4.23,7.09,7.09,0,0,1-5.9,1,8.94,8.94,0,0,1-4.46-2.1,5.76,5.76,0,0,1-1.7-3.56,10.81,10.81,0,0,1,0-2.37Z" transform="translate(-760.89 -455.77)"/></g><g class="cls-4"><path class="cls-5" d="M887.65,583.52a27.55,27.55,0,0,0-.69,3.63l-1.88,13.27a28.22,28.22,0,0,0-.34,3.69l-4.68-.66a26.49,26.49,0,0,0,.69-3.64l1.88-13.27a26.16,26.16,0,0,0,.34-3.68Z" transform="translate(-760.89 -455.77)"/></g><g class="cls-4"><path class="cls-5" d="M893,605.23c-1.61-.19-2.23-.23-3.15-.29a28.35,28.35,0,0,0,.57-3.62L892,587.78a32.25,32.25,0,0,0,.22-3.58c1.08.2,1.37.24,3.12.44l5.56.65c3.45.41,5.25,2.58,4.89,5.84a5,5,0,0,1-1.63,3.4,4.71,4.71,0,0,1-1.84.89,4.28,4.28,0,0,1,2.08,1.44,5.51,5.51,0,0,1,.94,4.08c-.39,3.56-2.79,5.41-6.49,5Zm1.64-3.94,3.91.46a2.32,2.32,0,0,0,.49-4.61l-3.88-.45Zm4.69-8.12a1.78,1.78,0,0,0,2-1.77,1.73,1.73,0,0,0-1.66-2.12l-3.69-.44-.44,3.89Z" transform="translate(-760.89 -455.77)"/></g><g class="cls-4"><path class="cls-5" d="M922.54,608.2a23.64,23.64,0,0,0-3.5-.46l-6.69-.56c-1.61-.13-2.21-.15-3.13-.18a26.78,26.78,0,0,0,.47-3.64l1.09-13.65a31.94,31.94,0,0,0,.12-3.66c.87.12,1.46.19,3.12.33l6.77.56A21,21,0,0,0,924,587l-.37,4.68a22.07,22.07,0,0,0-3.15-.44l-5.53-.45-.29,3.67,4.59.38a21.79,21.79,0,0,0,3.2.09l-.37,4.63a22,22,0,0,0-3.17-.44l-4.59-.38L914,603l5.48.45a23.56,23.56,0,0,0,3.48.11Z" transform="translate(-760.89 -455.77)"/></g><g class="cls-4"><path class="cls-5" d="M937.94,608.74a28.33,28.33,0,0,0-.84-3.94c-.58-2.21-.8-2.8-1.31-3.37a2.12,2.12,0,0,0-1.62-.76l-2.17-.1-.2,4.1a30,30,0,0,0,0,3.78l-4.57-.21a27.75,27.75,0,0,0,.36-3.74l.67-13.45a32.55,32.55,0,0,0,0-3.68c.93.09,1.71.16,3.16.22l5.52.26c3.44.17,5.34,2.36,5.16,6a6.1,6.1,0,0,1-1.46,4,4.54,4.54,0,0,1-2.08,1.15c1.06.45,1.52,1,2.11,2.86.28.81.54,1.68,1.36,4.42.2.71.42,1.35.88,2.7Zm-2.41-12.28c1.26,0,2.07-.81,2.14-2.23s-.58-2.16-1.89-2.22l-3.34-.16-.22,4.45Z" transform="translate(-760.89 -455.77)"/></g><g class="cls-4"><path class="cls-5" d="M952.33,588.34a27.15,27.15,0,0,0-.25,3.69l-.27,13.4a28.5,28.5,0,0,0,.1,3.71l-4.67-.11a28.86,28.86,0,0,0,.24-3.7l.27-13.4a26.13,26.13,0,0,0-.1-3.7Z" transform="translate(-760.89 -455.77)"/></g><g class="cls-4"><path class="cls-5" d="M969.11,609.26a21.9,21.9,0,0,0-.51-2.7l-.57-2.13H962l-.57,2.13a15.49,15.49,0,0,0-.53,2.7h-5a27.06,27.06,0,0,0,1-3l4.59-15.05a15.68,15.68,0,0,0,.68-2.7h5.55a21.78,21.78,0,0,0,.73,2.7l4.61,15.05c.4,1.32.74,2.35,1,3ZM965,592.74l-2,7.49h4Z" transform="translate(-760.89 -455.77)"/></g><g class="cls-4"><path class="cls-5" d="M987.94,598.23c.65,1,1.08,1.84,1.62,2.92-.12-1.15-.2-2.3-.24-3.7l-.17-5.7a30.27,30.27,0,0,0-.29-3.79l4.53-.16a32.73,32.73,0,0,0,0,3.81l.39,13.27a36.46,36.46,0,0,0,.29,3.72l-4.66.16a29.48,29.48,0,0,0-1.69-3.12l-4.14-6.83a31.25,31.25,0,0,1-1.62-3c.14,1.12.22,2.49.26,3.72l.16,5.6a33.77,33.77,0,0,0,.29,3.89l-4.53.16a30.71,30.71,0,0,0,.06-3.93l-.4-13.15a32.54,32.54,0,0,0-.28-3.72l4.61-.16a17.59,17.59,0,0,0,1.61,3.07Z" transform="translate(-760.89 -455.77)"/></g><g class="cls-4"><path class="cls-5" d="M1018.1,596.41c.7,1,1.17,1.79,1.77,2.84-.18-1.14-.31-2.28-.42-3.68l-.46-5.71a31.5,31.5,0,0,0-.47-3.78l4.52-.38a31.51,31.51,0,0,0,.13,3.82l1.07,13.28a35.63,35.63,0,0,0,.47,3.71l-4.66.38a29.33,29.33,0,0,0-1.84-3l-4.49-6.65a31.33,31.33,0,0,1-1.78-3c.2,1.11.35,2.48.45,3.71l.45,5.6a31.5,31.5,0,0,0,.48,3.89l-4.53.37a29.8,29.8,0,0,0-.14-3.94l-1-13.15a34.17,34.17,0,0,0-.47-3.72l4.61-.38a17.78,17.78,0,0,0,1.76,3Z" transform="translate(-760.89 -455.77)"/></g><g class="cls-4"><path class="cls-5" d="M1043.37,583.26a29.12,29.12,0,0,0,.32,3.76l1.12,8.52c.74,5.64-1.75,9.21-6.87,9.87a7.66,7.66,0,0,1-6.37-1.64,10.12,10.12,0,0,1-2.72-6.22l-1.11-8.46a27.77,27.77,0,0,0-.67-3.72l4.59-.59a28.22,28.22,0,0,0,.32,3.76l1.12,8.51c.41,3.12,1.82,4.45,4.3,4.13s3.57-2,3.16-5.09l-1.12-8.52a26.88,26.88,0,0,0-.66-3.71Z" transform="translate(-760.89 -455.77)"/></g><g class="cls-4"><path class="cls-5" d="M1060.06,597.71a32.54,32.54,0,0,0,.85,3.67l-4.64.83a33.7,33.7,0,0,0-.51-3.73l-2.27-12.35-2.48.45a24.49,24.49,0,0,0-3.14.73l-.86-4.67a25.78,25.78,0,0,0,3.16-.39l9.2-1.64a24.87,24.87,0,0,0,3.25-.76l.86,4.68a22.57,22.57,0,0,0-3.31.41l-2.38.43Z" transform="translate(-760.89 -455.77)"/></g></svg>