<svg xmlns="http://www.w3.org/2000/svg" width="53" height="34.781" viewBox="0 0 53 34.781">
  <path id="mail" d="M46.375,5H6.625A6.626,6.626,0,0,0,0,11.625V33.156a6.625,6.625,0,0,0,6.625,6.625h39.75A6.625,6.625,0,0,0,53,33.156V11.625A6.626,6.626,0,0,0,46.375,5ZM3.313,13.7l11.592,8.7-11.592,8.7ZM49.688,33.156a3.316,3.316,0,0,1-3.312,3.313H6.625a3.315,3.315,0,0,1-3.312-3.312l12.972-9.73,7.235,5.428a4.966,4.966,0,0,0,5.961,0l7.236-5.428,12.972,9.73Zm0-2.07-11.594-8.7,11.594-8.7Zm-21.2-3.558a3.31,3.31,0,0,1-3.973,0l-6.849-5.138-1.38-1.035L3.313,11.627v0A3.316,3.316,0,0,1,6.625,8.313h39.75a3.317,3.317,0,0,1,3.313,3.313Z" transform="translate(0 -5)" fill="#fff"/>
</svg>
