<svg id="Group_678" data-name="Group 678" xmlns="http://www.w3.org/2000/svg" width="53" height="51.942" viewBox="0 0 53 51.942">
  <g id="UrwUhy_2_" transform="translate(0 3.884)">
    <g id="Group_335" data-name="Group 335">
      <path id="Path_10" data-name="Path 10" d="M36.973,49.877h-2.38A36.8,36.8,0,0,1,10.878,37.556,41.4,41.4,0,0,1,0,12.487v-2.9A7.186,7.186,0,0,1,2.278,5.136C3.665,3.714,5.757,1.887,7.661,1.821A6.817,6.817,0,0,1,12.426,4.1c.828,1.131,1.27,3.394,1.654,5.076.395,1.7,1.281,4.162,1.035,5.8-.376,2.553-3.765,3.635-4.762,5.49A35.543,35.543,0,0,0,26.3,38.276c1.808-.993,3.4-3.979,5.906-4.039a10.872,10.872,0,0,1,3,.726c1.018.305,1.9.7,2.8,1.033,1.5.568,4.177,1.326,5.076,2.589a7.483,7.483,0,0,1,1.24,4.762C43.911,45.981,39.571,48.9,36.973,49.877Z" transform="translate(0 -1.819)" fill="#fff"/>
    </g>
  </g>
  <path id="Path_11" data-name="Path 11" d="M12.529,3.262A22.991,22.991,0,0,1,35.521,26.253h3.264A26.254,26.254,0,0,0,12.529,0Z" transform="translate(14.215)" fill="#fff"/>
  <path id="Path_12" data-name="Path 12" d="M12.529,9.327V12.64a3.032,3.032,0,0,1,3.033,3.031h3.315A6.346,6.346,0,0,0,12.529,9.327Z" transform="translate(14.215 10.582)" fill="#fff"/>
  <path id="Path_13" data-name="Path 13" d="M12.529,8.047A12.924,12.924,0,0,1,25.456,20.969h3.39A16.313,16.313,0,0,0,12.529,4.659Z" transform="translate(14.215 5.286)" fill="#fff"/>
</svg>
