<svg xmlns="http://www.w3.org/2000/svg" width="170.265" height="170.274" viewBox="0 0 170.265 170.274">
  <g id="Group_662" data-name="Group 662" transform="translate(0.5 0.5)" opacity="0.706">
    <g id="Group_663" data-name="Group 663">
      <path id="Path_50" data-name="Path 50" d="M0,118.951V51.6a3.542,3.542,0,0,0,.138-.746A52.507,52.507,0,0,1,2.6,38.108,54.069,54.069,0,0,1,53.591.685C74.32.6,95.049.658,115.778.685a50.216,50.216,0,0,1,13.294,1.8A54.081,54.081,0,0,1,169.258,54.94c0,20.231.028,40.463-.028,60.694a55.759,55.759,0,0,1-.387,6.8,54.209,54.209,0,0,1-45.244,46.82c-1.824.3-3.648.442-5.472.663H51.1c-.663-.083-1.3-.138-1.962-.221A54.238,54.238,0,0,1,.47,123.041C.3,121.687.166,120.3,0,118.951Zm84.6,40.3h0q14.8.041,29.628,0a47.705,47.705,0,0,0,5.251-.249,42.09,42.09,0,0,0,25.566-11.691c9.176-8.761,13.6-19.623,13.6-32.309,0-19.927.028-39.827-.028-59.754a44.461,44.461,0,0,0-.608-7.656,42.506,42.506,0,0,0-18.877-29.1,42.156,42.156,0,0,0-24.322-7.214c-20.176.028-40.352,0-60.528.028a43.472,43.472,0,0,0-29.6,11.47A42.335,42.335,0,0,0,10.668,54.912q-.041,30.347,0,60.694A43.366,43.366,0,0,0,53.536,159.22C63.873,159.386,74.237,159.248,84.6,159.248Z" transform="translate(0 -0.642)" fill="#f3671f" stroke="#707070" stroke-width="1"/>
      <path id="Path_51" data-name="Path 51" d="M198.74,206.013c0,10.668.028,21.365,0,32.033a34.034,34.034,0,0,1-9.895,24.543,33.407,33.407,0,0,1-20.314,10.088,44.5,44.5,0,0,1-5.417.3c-20.784.028-41.568.111-62.352-.028-13.515-.083-23.769-6.136-30.6-17.8A32.843,32.843,0,0,1,65.8,238.571a3.539,3.539,0,1,1,7.075-.083c.3,9.95,4.56,17.744,12.907,23.189a26.444,26.444,0,0,0,14.731,4.229q31.8.041,63.569,0a27.3,27.3,0,0,0,27-21.917,30.835,30.835,0,0,0,.58-6.163q.041-32.669.028-65.365a7.17,7.17,0,0,1,.111-1.548,3.518,3.518,0,0,1,3.676-2.653,3.563,3.563,0,0,1,3.289,3.317c.028.3.028.636.028.94Q198.713,189.264,198.74,206.013Z" transform="translate(-47.613 -121.92)" fill="#f3671f" stroke="#707070" stroke-width="1"/>
      <path id="Path_52" data-name="Path 52" d="M65.59,120.926c0-6.5-.111-13.018.028-19.513.3-15.008,7.3-25.787,20.895-32.2a32.145,32.145,0,0,1,13.847-2.847q31.715,0,63.458,0a34,34,0,0,1,22.056,7.849,3.554,3.554,0,1,1-4.45,5.5,27.6,27.6,0,0,0-17.772-6.274H100.525A27.384,27.384,0,0,0,73.3,95.333a30.866,30.866,0,0,0-.608,6.163c-.055,13.543-.028,27.113-.028,40.656a7.171,7.171,0,0,1-.111,1.548,3.49,3.49,0,0,1-3.842,2.626,3.534,3.534,0,0,1-3.123-3.372c-.028-.525,0-1.023,0-1.548Q65.59,131.125,65.59,120.926Z" transform="translate(-47.432 -48.193)" fill="#f3671f" stroke="#707070" stroke-width="1"/>
      <path id="Path_53" data-name="Path 53" d="M211.882,227.568V201.062a3.484,3.484,0,0,1,4.063-3.676,3.814,3.814,0,0,1,1.3.442q26.492,13.225,53.011,26.478a3.593,3.593,0,0,1,0,6.633l-52.9,26.45c-2.847,1.41-5.445-.221-5.445-3.372C211.854,245.173,211.882,236.384,211.882,227.568Zm7.1,21.033C233,241.58,246.928,234.643,261,227.6L218.985,206.59Z" transform="translate(-153.316 -142.978)" fill="#f3671f" stroke="#707070" stroke-width="1"/>
    </g>
  </g>
</svg>
