<svg id="Group_659" data-name="Group 659" xmlns="http://www.w3.org/2000/svg" width="66.635" height="66.596" viewBox="0 0 66.635 66.596">
  <g id="sound">
    <path id="Path_26" data-name="Path 26" d="M34.8,0l2.121.2a32.876,32.876,0,0,1,14.05,4.866A1.406,1.406,0,1,1,49.5,7.454,30.5,30.5,0,0,0,29.7,3.018,29.792,29.792,0,0,0,14.05,9.666,29.314,29.314,0,0,0,3.682,26.11C1.314,36.479,3.669,45.755,10.72,53.716a29.033,29.033,0,0,0,17.238,9.575,29.825,29.825,0,0,0,23.235-5.334,1.45,1.45,0,0,1,2.238.468,1.389,1.389,0,0,1-.481,1.743,33.466,33.466,0,0,1-5.412,3.239,32.678,32.678,0,0,1-12.424,3.135,2.427,2.427,0,0,0-.325.052H31.8c-.442-.039-.9-.091-1.34-.13a32.3,32.3,0,0,1-8.716-1.938,33.081,33.081,0,0,1-15.963-12.5A32.463,32.463,0,0,1,.2,36.856C.117,36.167.065,35.49,0,34.8V31.808c.026-.143.052-.286.065-.429a31.627,31.627,0,0,1,1-6.427A33.058,33.058,0,0,1,16.613,4.5,31.993,31.993,0,0,1,29.753.2c.69-.078,1.366-.13,2.056-.2Z" fill="#f3671f"/>
    <path id="Path_27" data-name="Path 27" d="M438.546,108.086c-.065.676-.13,1.353-.2,2.016a33.255,33.255,0,0,1-8.274,18.682,1.378,1.378,0,0,1-1.522.468,1.336,1.336,0,0,1-.976-1.145A1.417,1.417,0,0,1,428,126.9a30.092,30.092,0,0,0,4.449-6.518,29.321,29.321,0,0,0,3.122-10.681,30.234,30.234,0,0,0-7.194-22.975A1.475,1.475,0,0,1,428,85.189a1.406,1.406,0,0,1,2.42-.429,32.009,32.009,0,0,1,3.161,4.293,33.245,33.245,0,0,1,4.7,13.127c.117.833.156,1.665.234,2.5.013.13.039.26.065.39C438.546,106.1,438.546,107.085,438.546,108.086Z" transform="translate(-371.938 -73.286)" fill="#f3671f"/>
    <path id="Path_28" data-name="Path 28" d="M190.868,175.03v10.46a1.431,1.431,0,0,1-2.42,1.21q-2.42-2.147-4.84-4.267c-.455-.39-.885-.807-1.353-1.184a.91.91,0,0,0-.533-.208c-2.186-.013-4.371-.013-6.557-.013a1.455,1.455,0,0,1-1.665-1.665V169.71a1.45,1.45,0,0,1,1.626-1.639c2.029,0,4.059,0,6.075-.013a1.083,1.083,0,0,0,.559-.169c2.264-1.548,4.527-3.122,6.791-4.683a1.451,1.451,0,0,1,1.275-.26,1.4,1.4,0,0,1,1.028,1.366c.013.312,0,.637,0,.95Q190.874,170.158,190.868,175.03Zm-14.532-4.124v7.3h6a1.79,1.79,0,0,1,1.262.468c1.379,1.223,2.771,2.446,4.15,3.656.078.065.156.13.26.208V167c-.156.1-.286.182-.4.273-1.548,1.08-3.109,2.147-4.657,3.226a2.113,2.113,0,0,1-1.262.4c-1.639-.013-3.278,0-4.931,0Z" transform="translate(-150.928 -141.7)" fill="#f3671f"/>
    <path id="Path_29" data-name="Path 29" d="M398,133.94a24.8,24.8,0,0,1-7.337,17.16,1.411,1.411,0,0,1-1.665.377,1.439,1.439,0,0,1-.82-1.405,1.561,1.561,0,0,1,.533-1,22.189,22.189,0,0,0,5.23-8.4,22.558,22.558,0,0,0-5.23-23.235,1.435,1.435,0,0,1-.234-1.977,1.407,1.407,0,0,1,2.173-.065,25.076,25.076,0,0,1,3.552,4.488A26.13,26.13,0,0,1,398,133.94Z" transform="translate(-337.676 -99.959)" fill="#f3671f"/>
    <path id="Path_30" data-name="Path 30" d="M347.419,175.456a16.31,16.31,0,0,1-4.775,11.292,1.41,1.41,0,0,1-2.459-.742,1.4,1.4,0,0,1,.468-1.249,14.015,14.015,0,0,0,2.576-3.643,13.764,13.764,0,0,0-2.277-15.3c-.13-.143-.273-.273-.39-.416a1.4,1.4,0,0,1,2.029-1.938,16.324,16.324,0,0,1,2.576,3.317A17.028,17.028,0,0,1,347.419,175.456Z" transform="translate(-295.914 -141.826)" fill="#f3671f"/>
  </g>
</svg>
