<svg xmlns="http://www.w3.org/2000/svg" width="2601.116" height="9.99" viewBox="0 0 2601.116 9.99">
  <g id="Group_704" data-name="Group 704" transform="translate(0 -1074)">
    <path id="line" d="M0,8,10.824.01l10.838,8L21.676,10H0Z" transform="translate(0 1073.99)" fill="#fff"/>
    <path id="line-2" data-name="line" d="M0,8,10.824.01l10.838,8L21.676,10H0Z" transform="translate(21.676 1073.99)" fill="#fff"/>
    <path id="line-3" data-name="line" d="M0,8,10.824.01l10.838,8L21.676,10H0Z" transform="translate(43.352 1073.99)" fill="#fff"/>
    <path id="line-4" data-name="line" d="M0,8,10.824.01l10.838,8L21.676,10H0Z" transform="translate(65.028 1073.99)" fill="#fff"/>
    <path id="line-5" data-name="line" d="M0,8,10.824.01l10.838,8L21.676,10H0Z" transform="translate(86.704 1073.99)" fill="#fff"/>
    <path id="line-6" data-name="line" d="M0,8,10.824.01l10.838,8L21.676,10H0Z" transform="translate(108.38 1073.99)" fill="#fff"/>
    <path id="line-7" data-name="line" d="M0,8,10.824.01l10.838,8L21.676,10H0Z" transform="translate(130.056 1073.99)" fill="#fff"/>
    <path id="line-8" data-name="line" d="M0,8,10.824.01l10.838,8L21.676,10H0Z" transform="translate(151.732 1073.99)" fill="#fff"/>
    <path id="line-9" data-name="line" d="M0,8,10.824.01l10.838,8L21.676,10H0Z" transform="translate(173.408 1073.99)" fill="#fff"/>
    <path id="line-10" data-name="line" d="M0,8,10.824.01l10.838,8L21.676,10H0Z" transform="translate(195.084 1073.99)" fill="#fff"/>
    <path id="line-11" data-name="line" d="M0,8,10.824.01l10.838,8L21.676,10H0Z" transform="translate(216.76 1073.99)" fill="#fff"/>
    <path id="line-12" data-name="line" d="M0,8,10.824.01l10.838,8L21.676,10H0Z" transform="translate(238.436 1073.99)" fill="#fff"/>
    <path id="line-13" data-name="line" d="M0,8,10.824.01l10.838,8L21.676,10H0Z" transform="translate(260.112 1073.99)" fill="#fff"/>
    <path id="line-14" data-name="line" d="M0,8,10.824.01l10.838,8L21.676,10H0Z" transform="translate(281.788 1073.99)" fill="#fff"/>
    <path id="line-15" data-name="line" d="M0,8,10.824.01l10.838,8L21.676,10H0Z" transform="translate(303.464 1073.99)" fill="#fff"/>
    <path id="line-16" data-name="line" d="M0,8,10.824.01l10.838,8L21.676,10H0Z" transform="translate(325.14 1073.99)" fill="#fff"/>
    <path id="line-17" data-name="line" d="M0,8,10.824.01l10.838,8L21.676,10H0Z" transform="translate(346.816 1073.99)" fill="#fff"/>
    <path id="line-18" data-name="line" d="M0,8,10.824.01l10.838,8L21.676,10H0Z" transform="translate(368.492 1073.99)" fill="#fff"/>
    <path id="line-19" data-name="line" d="M0,8,10.824.01l10.838,8L21.676,10H0Z" transform="translate(390.168 1073.99)" fill="#fff"/>
    <path id="line-20" data-name="line" d="M0,8,10.824.01l10.838,8L21.676,10H0Z" transform="translate(411.843 1073.99)" fill="#fff"/>
    <path id="line-21" data-name="line" d="M0,8,10.824.01l10.838,8L21.676,10H0Z" transform="translate(433.519 1073.99)" fill="#fff"/>
    <path id="line-22" data-name="line" d="M0,8,10.824.01l10.838,8L21.676,10H0Z" transform="translate(455.195 1073.99)" fill="#fff"/>
    <path id="line-23" data-name="line" d="M0,8,10.824.01l10.838,8L21.676,10H0Z" transform="translate(476.871 1073.99)" fill="#fff"/>
    <path id="line-24" data-name="line" d="M0,8,10.824.01l10.838,8L21.676,10H0Z" transform="translate(498.547 1073.99)" fill="#fff"/>
    <path id="line-25" data-name="line" d="M0,8,10.824.01l10.838,8L21.676,10H0Z" transform="translate(520.223 1073.99)" fill="#fff"/>
    <path id="line-26" data-name="line" d="M0,8,10.824.01l10.838,8L21.676,10H0Z" transform="translate(541.899 1073.99)" fill="#fff"/>
    <path id="line-27" data-name="line" d="M0,8,10.824.01l10.838,8L21.676,10H0Z" transform="translate(563.575 1073.99)" fill="#fff"/>
    <path id="line-28" data-name="line" d="M0,8,10.824.01l10.838,8L21.676,10H0Z" transform="translate(585.251 1073.99)" fill="#fff"/>
    <path id="line-29" data-name="line" d="M0,8,10.824.01l10.838,8L21.676,10H0Z" transform="translate(606.927 1073.99)" fill="#fff"/>
    <path id="line-30" data-name="line" d="M0,8,10.824.01l10.838,8L21.676,10H0Z" transform="translate(628.603 1073.99)" fill="#fff"/>
    <path id="line-31" data-name="line" d="M0,8,10.824.01l10.838,8L21.676,10H0Z" transform="translate(650.279 1073.99)" fill="#fff"/>
    <path id="line-32" data-name="line" d="M0,8,10.824.01l10.838,8L21.676,10H0Z" transform="translate(671.955 1073.99)" fill="#fff"/>
    <path id="line-33" data-name="line" d="M0,8,10.824.01l10.838,8L21.676,10H0Z" transform="translate(693.631 1073.99)" fill="#fff"/>
    <path id="line-34" data-name="line" d="M0,8,10.824.01l10.838,8L21.676,10H0Z" transform="translate(715.307 1073.99)" fill="#fff"/>
    <path id="line-35" data-name="line" d="M0,8,10.824.01l10.838,8L21.676,10H0Z" transform="translate(736.983 1073.99)" fill="#fff"/>
    <path id="line-36" data-name="line" d="M0,8,10.824.01l10.838,8L21.676,10H0Z" transform="translate(758.659 1073.99)" fill="#fff"/>
    <path id="line-37" data-name="line" d="M0,8,10.824.01l10.838,8L21.676,10H0Z" transform="translate(780.335 1073.99)" fill="#fff"/>
    <path id="line-38" data-name="line" d="M0,8,10.824.01l10.838,8L21.676,10H0Z" transform="translate(802.011 1073.99)" fill="#fff"/>
    <path id="line-39" data-name="line" d="M0,8,10.824.01l10.838,8L21.676,10H0Z" transform="translate(823.687 1073.99)" fill="#fff"/>
    <path id="line-40" data-name="line" d="M0,8,10.824.01l10.838,8L21.676,10H0Z" transform="translate(845.363 1073.99)" fill="#fff"/>
    <path id="line-41" data-name="line" d="M0,8,10.824.01l10.838,8L21.676,10H0Z" transform="translate(867.039 1073.99)" fill="#fff"/>
    <path id="line-42" data-name="line" d="M0,8,10.824.01l10.838,8L21.676,10H0Z" transform="translate(888.715 1073.99)" fill="#fff"/>
    <path id="line-43" data-name="line" d="M0,8,10.824.01l10.838,8L21.676,10H0Z" transform="translate(910.391 1073.99)" fill="#fff"/>
    <path id="line-44" data-name="line" d="M0,8,10.824.01l10.838,8L21.676,10H0Z" transform="translate(932.067 1073.99)" fill="#fff"/>
    <path id="line-45" data-name="line" d="M0,8,10.824.01l10.838,8L21.676,10H0Z" transform="translate(953.743 1073.99)" fill="#fff"/>
    <path id="line-46" data-name="line" d="M0,8,10.824.01l10.838,8L21.676,10H0Z" transform="translate(975.419 1073.99)" fill="#fff"/>
    <path id="line-47" data-name="line" d="M0,8,10.824.01l10.838,8L21.676,10H0Z" transform="translate(997.095 1073.99)" fill="#fff"/>
    <path id="line-48" data-name="line" d="M0,8,10.824.01l10.838,8L21.676,10H0Z" transform="translate(1018.771 1073.99)" fill="#fff"/>
    <path id="line-49" data-name="line" d="M0,8,10.824.01l10.838,8L21.676,10H0Z" transform="translate(1040.447 1073.99)" fill="#fff"/>
    <path id="line-50" data-name="line" d="M0,8,10.824.01l10.838,8L21.676,10H0Z" transform="translate(1062.123 1073.99)" fill="#fff"/>
    <path id="line-51" data-name="line" d="M0,8,10.824.01l10.838,8L21.676,10H0Z" transform="translate(1083.799 1073.99)" fill="#fff"/>
    <path id="line-52" data-name="line" d="M0,8,10.824.01l10.838,8L21.676,10H0Z" transform="translate(1105.475 1073.99)" fill="#fff"/>
    <path id="line-53" data-name="line" d="M0,8,10.824.01l10.838,8L21.676,10H0Z" transform="translate(1127.151 1073.99)" fill="#fff"/>
    <path id="line-54" data-name="line" d="M0,8,10.824.01l10.838,8L21.676,10H0Z" transform="translate(1148.827 1073.99)" fill="#fff"/>
    <path id="line-55" data-name="line" d="M0,8,10.824.01l10.838,8L21.676,10H0Z" transform="translate(1170.503 1073.99)" fill="#fff"/>
    <path id="line-56" data-name="line" d="M0,8,10.824.01l10.838,8L21.676,10H0Z" transform="translate(1192.178 1073.99)" fill="#fff"/>
    <path id="line-57" data-name="line" d="M0,8,10.824.01l10.838,8L21.676,10H0Z" transform="translate(1213.854 1073.99)" fill="#fff"/>
    <path id="line-58" data-name="line" d="M0,8,10.824.01l10.838,8L21.676,10H0Z" transform="translate(1235.53 1073.99)" fill="#fff"/>
    <path id="line-59" data-name="line" d="M0,8,10.824.01l10.838,8L21.676,10H0Z" transform="translate(1257.206 1073.99)" fill="#fff"/>
    <path id="line-60" data-name="line" d="M0,8,10.824.01l10.838,8L21.676,10H0Z" transform="translate(1278.882 1073.99)" fill="#fff"/>
    <path id="line-61" data-name="line" d="M0,8,10.824.01l10.838,8L21.676,10H0Z" transform="translate(1300.558 1073.99)" fill="#fff"/>
    <path id="line-62" data-name="line" d="M0,8,10.824.01l10.838,8L21.676,10H0Z" transform="translate(1322.234 1073.99)" fill="#fff"/>
    <path id="line-63" data-name="line" d="M0,8,10.824.01l10.838,8L21.676,10H0Z" transform="translate(1343.91 1073.99)" fill="#fff"/>
    <path id="line-64" data-name="line" d="M0,8,10.824.01l10.838,8L21.676,10H0Z" transform="translate(1365.586 1073.99)" fill="#fff"/>
    <path id="line-65" data-name="line" d="M0,8,10.824.01l10.838,8L21.676,10H0Z" transform="translate(1387.262 1073.99)" fill="#fff"/>
    <path id="line-66" data-name="line" d="M0,8,10.824.01l10.838,8L21.676,10H0Z" transform="translate(1408.938 1073.99)" fill="#fff"/>
    <path id="line-67" data-name="line" d="M0,8,10.824.01l10.838,8L21.676,10H0Z" transform="translate(1430.614 1073.99)" fill="#fff"/>
    <path id="line-68" data-name="line" d="M0,8,10.824.01l10.838,8L21.676,10H0Z" transform="translate(1452.29 1073.99)" fill="#fff"/>
    <path id="line-69" data-name="line" d="M0,8,10.824.01l10.838,8L21.676,10H0Z" transform="translate(1473.966 1073.99)" fill="#fff"/>
    <path id="line-70" data-name="line" d="M0,8,10.824.01l10.838,8L21.676,10H0Z" transform="translate(1495.642 1073.99)" fill="#fff"/>
    <path id="line-71" data-name="line" d="M0,8,10.824.01l10.838,8L21.676,10H0Z" transform="translate(1517.318 1073.99)" fill="#fff"/>
    <path id="line-72" data-name="line" d="M0,8,10.824.01l10.838,8L21.676,10H0Z" transform="translate(1538.994 1073.99)" fill="#fff"/>
    <path id="line-73" data-name="line" d="M0,8,10.824.01l10.838,8L21.676,10H0Z" transform="translate(1560.67 1073.99)" fill="#fff"/>
    <path id="line-74" data-name="line" d="M0,8,10.824.01l10.838,8L21.676,10H0Z" transform="translate(1582.346 1073.99)" fill="#fff"/>
    <path id="line-75" data-name="line" d="M0,8,10.824.01l10.838,8L21.676,10H0Z" transform="translate(1604.022 1073.99)" fill="#fff"/>
    <path id="line-76" data-name="line" d="M0,8,10.824.01l10.838,8L21.676,10H0Z" transform="translate(1625.698 1073.99)" fill="#fff"/>
    <path id="line-77" data-name="line" d="M0,8,10.824.01l10.838,8L21.676,10H0Z" transform="translate(1647.374 1073.99)" fill="#fff"/>
    <path id="line-78" data-name="line" d="M0,8,10.824.01l10.838,8L21.676,10H0Z" transform="translate(1669.05 1073.99)" fill="#fff"/>
    <path id="line-79" data-name="line" d="M0,8,10.824.01l10.838,8L21.676,10H0Z" transform="translate(1690.726 1073.99)" fill="#fff"/>
    <path id="line-80" data-name="line" d="M0,8,10.824.01l10.838,8L21.676,10H0Z" transform="translate(1712.402 1073.99)" fill="#fff"/>
    <path id="line-81" data-name="line" d="M0,8,10.824.01l10.838,8L21.676,10H0Z" transform="translate(1734.078 1073.99)" fill="#fff"/>
    <path id="line-82" data-name="line" d="M0,8,10.824.01l10.838,8L21.676,10H0Z" transform="translate(1755.754 1073.99)" fill="#fff"/>
    <path id="line-83" data-name="line" d="M0,8,10.824.01l10.838,8L21.676,10H0Z" transform="translate(1777.43 1073.99)" fill="#fff"/>
    <path id="line-84" data-name="line" d="M0,8,10.824.01l10.838,8L21.676,10H0Z" transform="translate(1799.106 1073.99)" fill="#fff"/>
    <path id="line-85" data-name="line" d="M0,8,10.824.01l10.838,8L21.676,10H0Z" transform="translate(1820.782 1073.99)" fill="#fff"/>
    <path id="line-86" data-name="line" d="M0,8,10.824.01l10.838,8L21.676,10H0Z" transform="translate(1842.458 1073.99)" fill="#fff"/>
    <path id="line-87" data-name="line" d="M0,8,10.824.01l10.838,8L21.676,10H0Z" transform="translate(1864.134 1073.99)" fill="#fff"/>
    <path id="line-88" data-name="line" d="M0,8,10.824.01l10.838,8L21.676,10H0Z" transform="translate(1885.81 1073.99)" fill="#fff"/>
    <path id="line-89" data-name="line" d="M0,8,10.824.01l10.838,8L21.676,10H0Z" transform="translate(1907.486 1073.99)" fill="#fff"/>
    <path id="line-90" data-name="line" d="M0,8,10.824.01l10.838,8L21.676,10H0Z" transform="translate(1929.161 1073.99)" fill="#fff"/>
    <path id="line-91" data-name="line" d="M0,8,10.824.01l10.838,8L21.676,10H0Z" transform="translate(1950.838 1073.99)" fill="#fff"/>
    <path id="line-92" data-name="line" d="M0,8,10.824.01l10.838,8L21.676,10H0Z" transform="translate(1972.514 1073.99)" fill="#fff"/><svg xmlns="http://www.w3.org/2000/svg" width="2601.116" height="9.99" viewBox="0 0 2601.116 9.99">
    <g id="Group_704" data-name="Group 704" transform="translate(0 -1074)">
      <path id="line" d="M0,8,10.824.01l10.838,8L21.676,10H0Z" transform="translate(0 1073.99)" fill="#fff"/>
      <path id="line-2" data-name="line" d="M0,8,10.824.01l10.838,8L21.676,10H0Z" transform="translate(21.676 1073.99)" fill="#fff"/>
      <path id="line-3" data-name="line" d="M0,8,10.824.01l10.838,8L21.676,10H0Z" transform="translate(43.352 1073.99)" fill="#fff"/>
      <path id="line-4" data-name="line" d="M0,8,10.824.01l10.838,8L21.676,10H0Z" transform="translate(65.028 1073.99)" fill="#fff"/>
      <path id="line-5" data-name="line" d="M0,8,10.824.01l10.838,8L21.676,10H0Z" transform="translate(86.704 1073.99)" fill="#fff"/>
      <path id="line-6" data-name="line" d="M0,8,10.824.01l10.838,8L21.676,10H0Z" transform="translate(108.38 1073.99)" fill="#fff"/>
      <path id="line-7" data-name="line" d="M0,8,10.824.01l10.838,8L21.676,10H0Z" transform="translate(130.056 1073.99)" fill="#fff"/>
      <path id="line-8" data-name="line" d="M0,8,10.824.01l10.838,8L21.676,10H0Z" transform="translate(151.732 1073.99)" fill="#fff"/>
      <path id="line-9" data-name="line" d="M0,8,10.824.01l10.838,8L21.676,10H0Z" transform="translate(173.408 1073.99)" fill="#fff"/>
      <path id="line-10" data-name="line" d="M0,8,10.824.01l10.838,8L21.676,10H0Z" transform="translate(195.084 1073.99)" fill="#fff"/>
      <path id="line-11" data-name="line" d="M0,8,10.824.01l10.838,8L21.676,10H0Z" transform="translate(216.76 1073.99)" fill="#fff"/>
      <path id="line-12" data-name="line" d="M0,8,10.824.01l10.838,8L21.676,10H0Z" transform="translate(238.436 1073.99)" fill="#fff"/>
      <path id="line-13" data-name="line" d="M0,8,10.824.01l10.838,8L21.676,10H0Z" transform="translate(260.112 1073.99)" fill="#fff"/>
      <path id="line-14" data-name="line" d="M0,8,10.824.01l10.838,8L21.676,10H0Z" transform="translate(281.788 1073.99)" fill="#fff"/>
      <path id="line-15" data-name="line" d="M0,8,10.824.01l10.838,8L21.676,10H0Z" transform="translate(303.464 1073.99)" fill="#fff"/>
      <path id="line-16" data-name="line" d="M0,8,10.824.01l10.838,8L21.676,10H0Z" transform="translate(325.14 1073.99)" fill="#fff"/>
      <path id="line-17" data-name="line" d="M0,8,10.824.01l10.838,8L21.676,10H0Z" transform="translate(346.816 1073.99)" fill="#fff"/>
      <path id="line-18" data-name="line" d="M0,8,10.824.01l10.838,8L21.676,10H0Z" transform="translate(368.492 1073.99)" fill="#fff"/>
      <path id="line-19" data-name="line" d="M0,8,10.824.01l10.838,8L21.676,10H0Z" transform="translate(390.168 1073.99)" fill="#fff"/>
      <path id="line-20" data-name="line" d="M0,8,10.824.01l10.838,8L21.676,10H0Z" transform="translate(411.843 1073.99)" fill="#fff"/>
      <path id="line-21" data-name="line" d="M0,8,10.824.01l10.838,8L21.676,10H0Z" transform="translate(433.519 1073.99)" fill="#fff"/>
      <path id="line-22" data-name="line" d="M0,8,10.824.01l10.838,8L21.676,10H0Z" transform="translate(455.195 1073.99)" fill="#fff"/>
      <path id="line-23" data-name="line" d="M0,8,10.824.01l10.838,8L21.676,10H0Z" transform="translate(476.871 1073.99)" fill="#fff"/>
      <path id="line-24" data-name="line" d="M0,8,10.824.01l10.838,8L21.676,10H0Z" transform="translate(498.547 1073.99)" fill="#fff"/>
      <path id="line-25" data-name="line" d="M0,8,10.824.01l10.838,8L21.676,10H0Z" transform="translate(520.223 1073.99)" fill="#fff"/>
      <path id="line-26" data-name="line" d="M0,8,10.824.01l10.838,8L21.676,10H0Z" transform="translate(541.899 1073.99)" fill="#fff"/>
      <path id="line-27" data-name="line" d="M0,8,10.824.01l10.838,8L21.676,10H0Z" transform="translate(563.575 1073.99)" fill="#fff"/>
      <path id="line-28" data-name="line" d="M0,8,10.824.01l10.838,8L21.676,10H0Z" transform="translate(585.251 1073.99)" fill="#fff"/>
      <path id="line-29" data-name="line" d="M0,8,10.824.01l10.838,8L21.676,10H0Z" transform="translate(606.927 1073.99)" fill="#fff"/>
      <path id="line-30" data-name="line" d="M0,8,10.824.01l10.838,8L21.676,10H0Z" transform="translate(628.603 1073.99)" fill="#fff"/>
      <path id="line-31" data-name="line" d="M0,8,10.824.01l10.838,8L21.676,10H0Z" transform="translate(650.279 1073.99)" fill="#fff"/>
      <path id="line-32" data-name="line" d="M0,8,10.824.01l10.838,8L21.676,10H0Z" transform="translate(671.955 1073.99)" fill="#fff"/>
      <path id="line-33" data-name="line" d="M0,8,10.824.01l10.838,8L21.676,10H0Z" transform="translate(693.631 1073.99)" fill="#fff"/>
      <path id="line-34" data-name="line" d="M0,8,10.824.01l10.838,8L21.676,10H0Z" transform="translate(715.307 1073.99)" fill="#fff"/>
      <path id="line-35" data-name="line" d="M0,8,10.824.01l10.838,8L21.676,10H0Z" transform="translate(736.983 1073.99)" fill="#fff"/>
      <path id="line-36" data-name="line" d="M0,8,10.824.01l10.838,8L21.676,10H0Z" transform="translate(758.659 1073.99)" fill="#fff"/>
      <path id="line-37" data-name="line" d="M0,8,10.824.01l10.838,8L21.676,10H0Z" transform="translate(780.335 1073.99)" fill="#fff"/>
      <path id="line-38" data-name="line" d="M0,8,10.824.01l10.838,8L21.676,10H0Z" transform="translate(802.011 1073.99)" fill="#fff"/>
      <path id="line-39" data-name="line" d="M0,8,10.824.01l10.838,8L21.676,10H0Z" transform="translate(823.687 1073.99)" fill="#fff"/>
      <path id="line-40" data-name="line" d="M0,8,10.824.01l10.838,8L21.676,10H0Z" transform="translate(845.363 1073.99)" fill="#fff"/>
      <path id="line-41" data-name="line" d="M0,8,10.824.01l10.838,8L21.676,10H0Z" transform="translate(867.039 1073.99)" fill="#fff"/>
      <path id="line-42" data-name="line" d="M0,8,10.824.01l10.838,8L21.676,10H0Z" transform="translate(888.715 1073.99)" fill="#fff"/>
      <path id="line-43" data-name="line" d="M0,8,10.824.01l10.838,8L21.676,10H0Z" transform="translate(910.391 1073.99)" fill="#fff"/>
      <path id="line-44" data-name="line" d="M0,8,10.824.01l10.838,8L21.676,10H0Z" transform="translate(932.067 1073.99)" fill="#fff"/>
      <path id="line-45" data-name="line" d="M0,8,10.824.01l10.838,8L21.676,10H0Z" transform="translate(953.743 1073.99)" fill="#fff"/>
      <path id="line-46" data-name="line" d="M0,8,10.824.01l10.838,8L21.676,10H0Z" transform="translate(975.419 1073.99)" fill="#fff"/>
      <path id="line-47" data-name="line" d="M0,8,10.824.01l10.838,8L21.676,10H0Z" transform="translate(997.095 1073.99)" fill="#fff"/>
      <path id="line-48" data-name="line" d="M0,8,10.824.01l10.838,8L21.676,10H0Z" transform="translate(1018.771 1073.99)" fill="#fff"/>
      <path id="line-49" data-name="line" d="M0,8,10.824.01l10.838,8L21.676,10H0Z" transform="translate(1040.447 1073.99)" fill="#fff"/>
      <path id="line-50" data-name="line" d="M0,8,10.824.01l10.838,8L21.676,10H0Z" transform="translate(1062.123 1073.99)" fill="#fff"/>
      <path id="line-51" data-name="line" d="M0,8,10.824.01l10.838,8L21.676,10H0Z" transform="translate(1083.799 1073.99)" fill="#fff"/>
      <path id="line-52" data-name="line" d="M0,8,10.824.01l10.838,8L21.676,10H0Z" transform="translate(1105.475 1073.99)" fill="#fff"/>
      <path id="line-53" data-name="line" d="M0,8,10.824.01l10.838,8L21.676,10H0Z" transform="translate(1127.151 1073.99)" fill="#fff"/>
      <path id="line-54" data-name="line" d="M0,8,10.824.01l10.838,8L21.676,10H0Z" transform="translate(1148.827 1073.99)" fill="#fff"/>
      <path id="line-55" data-name="line" d="M0,8,10.824.01l10.838,8L21.676,10H0Z" transform="translate(1170.503 1073.99)" fill="#fff"/>
      <path id="line-56" data-name="line" d="M0,8,10.824.01l10.838,8L21.676,10H0Z" transform="translate(1192.178 1073.99)" fill="#fff"/>
      <path id="line-57" data-name="line" d="M0,8,10.824.01l10.838,8L21.676,10H0Z" transform="translate(1213.854 1073.99)" fill="#fff"/>
      <path id="line-58" data-name="line" d="M0,8,10.824.01l10.838,8L21.676,10H0Z" transform="translate(1235.53 1073.99)" fill="#fff"/>
      <path id="line-59" data-name="line" d="M0,8,10.824.01l10.838,8L21.676,10H0Z" transform="translate(1257.206 1073.99)" fill="#fff"/>
      <path id="line-60" data-name="line" d="M0,8,10.824.01l10.838,8L21.676,10H0Z" transform="translate(1278.882 1073.99)" fill="#fff"/>
      <path id="line-61" data-name="line" d="M0,8,10.824.01l10.838,8L21.676,10H0Z" transform="translate(1300.558 1073.99)" fill="#fff"/>
      <path id="line-62" data-name="line" d="M0,8,10.824.01l10.838,8L21.676,10H0Z" transform="translate(1322.234 1073.99)" fill="#fff"/>
      <path id="line-63" data-name="line" d="M0,8,10.824.01l10.838,8L21.676,10H0Z" transform="translate(1343.91 1073.99)" fill="#fff"/>
      <path id="line-64" data-name="line" d="M0,8,10.824.01l10.838,8L21.676,10H0Z" transform="translate(1365.586 1073.99)" fill="#fff"/>
      <path id="line-65" data-name="line" d="M0,8,10.824.01l10.838,8L21.676,10H0Z" transform="translate(1387.262 1073.99)" fill="#fff"/>
      <path id="line-66" data-name="line" d="M0,8,10.824.01l10.838,8L21.676,10H0Z" transform="translate(1408.938 1073.99)" fill="#fff"/>
      <path id="line-67" data-name="line" d="M0,8,10.824.01l10.838,8L21.676,10H0Z" transform="translate(1430.614 1073.99)" fill="#fff"/>
      <path id="line-68" data-name="line" d="M0,8,10.824.01l10.838,8L21.676,10H0Z" transform="translate(1452.29 1073.99)" fill="#fff"/>
      <path id="line-69" data-name="line" d="M0,8,10.824.01l10.838,8L21.676,10H0Z" transform="translate(1473.966 1073.99)" fill="#fff"/>
      <path id="line-70" data-name="line" d="M0,8,10.824.01l10.838,8L21.676,10H0Z" transform="translate(1495.642 1073.99)" fill="#fff"/>
      <path id="line-71" data-name="line" d="M0,8,10.824.01l10.838,8L21.676,10H0Z" transform="translate(1517.318 1073.99)" fill="#fff"/>
      <path id="line-72" data-name="line" d="M0,8,10.824.01l10.838,8L21.676,10H0Z" transform="translate(1538.994 1073.99)" fill="#fff"/>
      <path id="line-73" data-name="line" d="M0,8,10.824.01l10.838,8L21.676,10H0Z" transform="translate(1560.67 1073.99)" fill="#fff"/>
      <path id="line-74" data-name="line" d="M0,8,10.824.01l10.838,8L21.676,10H0Z" transform="translate(1582.346 1073.99)" fill="#fff"/>
      <path id="line-75" data-name="line" d="M0,8,10.824.01l10.838,8L21.676,10H0Z" transform="translate(1604.022 1073.99)" fill="#fff"/>
      <path id="line-76" data-name="line" d="M0,8,10.824.01l10.838,8L21.676,10H0Z" transform="translate(1625.698 1073.99)" fill="#fff"/>
      <path id="line-77" data-name="line" d="M0,8,10.824.01l10.838,8L21.676,10H0Z" transform="translate(1647.374 1073.99)" fill="#fff"/>
      <path id="line-78" data-name="line" d="M0,8,10.824.01l10.838,8L21.676,10H0Z" transform="translate(1669.05 1073.99)" fill="#fff"/>
      <path id="line-79" data-name="line" d="M0,8,10.824.01l10.838,8L21.676,10H0Z" transform="translate(1690.726 1073.99)" fill="#fff"/>
      <path id="line-80" data-name="line" d="M0,8,10.824.01l10.838,8L21.676,10H0Z" transform="translate(1712.402 1073.99)" fill="#fff"/>
      <path id="line-81" data-name="line" d="M0,8,10.824.01l10.838,8L21.676,10H0Z" transform="translate(1734.078 1073.99)" fill="#fff"/>
      <path id="line-82" data-name="line" d="M0,8,10.824.01l10.838,8L21.676,10H0Z" transform="translate(1755.754 1073.99)" fill="#fff"/>
      <path id="line-83" data-name="line" d="M0,8,10.824.01l10.838,8L21.676,10H0Z" transform="translate(1777.43 1073.99)" fill="#fff"/>
      <path id="line-84" data-name="line" d="M0,8,10.824.01l10.838,8L21.676,10H0Z" transform="translate(1799.106 1073.99)" fill="#fff"/>
      <path id="line-85" data-name="line" d="M0,8,10.824.01l10.838,8L21.676,10H0Z" transform="translate(1820.782 1073.99)" fill="#fff"/>
      <path id="line-86" data-name="line" d="M0,8,10.824.01l10.838,8L21.676,10H0Z" transform="translate(1842.458 1073.99)" fill="#fff"/>
      <path id="line-87" data-name="line" d="M0,8,10.824.01l10.838,8L21.676,10H0Z" transform="translate(1864.134 1073.99)" fill="#fff"/>
      <path id="line-88" data-name="line" d="M0,8,10.824.01l10.838,8L21.676,10H0Z" transform="translate(1885.81 1073.99)" fill="#fff"/>
      <path id="line-89" data-name="line" d="M0,8,10.824.01l10.838,8L21.676,10H0Z" transform="translate(1907.486 1073.99)" fill="#fff"/>
      <path id="line-90" data-name="line" d="M0,8,10.824.01l10.838,8L21.676,10H0Z" transform="translate(1929.161 1073.99)" fill="#fff"/>
      <path id="line-91" data-name="line" d="M0,8,10.824.01l10.838,8L21.676,10H0Z" transform="translate(1950.838 1073.99)" fill="#fff"/>
      <path id="line-92" data-name="line" d="M0,8,10.824.01l10.838,8L21.676,10H0Z" transform="translate(1972.514 1073.99)" fill="#fff"/>
      <path id="line-93" data-name="line" d="M0,8,10.824.01l10.838,8L21.676,10H0Z" transform="translate(1994.189 1073.99)" fill="#fff"/>
      <path id="line-94" data-name="line" d="M0,8,10.824.01l10.838,8L21.676,10H0Z" transform="translate(2015.865 1073.99)" fill="#fff"/>
      <path id="line-95" data-name="line" d="M0,8,10.824.01l10.838,8L21.676,10H0Z" transform="translate(2037.541 1073.99)" fill="#fff"/>
      <path id="line-96" data-name="line" d="M0,8,10.824.01l10.838,8L21.676,10H0Z" transform="translate(2059.217 1073.99)" fill="#fff"/>
      <path id="line-97" data-name="line" d="M0,8,10.824.01l10.838,8L21.676,10H0Z" transform="translate(2080.893 1073.99)" fill="#fff"/>
      <path id="line-98" data-name="line" d="M0,8,10.824.01l10.838,8L21.676,10H0Z" transform="translate(2102.569 1073.99)" fill="#fff"/>
      <path id="line-99" data-name="line" d="M0,8,10.824.01l10.838,8L21.676,10H0Z" transform="translate(2124.245 1073.99)" fill="#fff"/>
      <path id="line-100" data-name="line" d="M0,8,10.824.01l10.838,8L21.676,10H0Z" transform="translate(2145.921 1073.99)" fill="#fff"/>
      <path id="line-101" data-name="line" d="M0,8,10.824.01l10.838,8L21.676,10H0Z" transform="translate(2167.597 1073.99)" fill="#fff"/>
      <path id="line-102" data-name="line" d="M0,8,10.824.01l10.838,8L21.676,10H0Z" transform="translate(2189.273 1073.99)" fill="#fff"/>
      <path id="line-103" data-name="line" d="M0,8,10.824.01l10.838,8L21.676,10H0Z" transform="translate(2210.949 1073.99)" fill="#fff"/>
      <path id="line-104" data-name="line" d="M0,8,10.824.01l10.838,8L21.676,10H0Z" transform="translate(2232.625 1073.99)" fill="#fff"/>
      <path id="line-105" data-name="line" d="M0,8,10.824.01l10.838,8L21.676,10H0Z" transform="translate(2254.301 1073.99)" fill="#fff"/>
      <path id="line-106" data-name="line" d="M0,8,10.824.01l10.838,8L21.676,10H0Z" transform="translate(2275.977 1073.99)" fill="#fff"/>
      <path id="line-107" data-name="line" d="M0,8,10.824.01l10.838,8L21.676,10H0Z" transform="translate(2297.653 1073.99)" fill="#fff"/>
      <path id="line-108" data-name="line" d="M0,8,10.824.01l10.838,8L21.676,10H0Z" transform="translate(2319.329 1073.99)" fill="#fff"/>
      <path id="line-109" data-name="line" d="M0,8,10.824.01l10.838,8L21.676,10H0Z" transform="translate(2341.005 1073.99)" fill="#fff"/>
      <path id="line-110" data-name="line" d="M0,8,10.824.01l10.838,8L21.676,10H0Z" transform="translate(2362.681 1073.99)" fill="#fff"/>
      <path id="line-111" data-name="line" d="M0,8,10.824.01l10.838,8L21.676,10H0Z" transform="translate(2384.357 1073.99)" fill="#fff"/>
      <path id="line-112" data-name="line" d="M0,8,10.824.01l10.838,8L21.676,10H0Z" transform="translate(2406.033 1073.99)" fill="#fff"/>
      <path id="line-113" data-name="line" d="M0,8,10.824.01l10.838,8L21.676,10H0Z" transform="translate(2427.709 1073.99)" fill="#fff"/>
      <path id="line-114" data-name="line" d="M0,8,10.824.01l10.838,8L21.676,10H0Z" transform="translate(2449.385 1073.99)" fill="#fff"/>
      <path id="line-115" data-name="line" d="M0,8,10.824.01l10.838,8L21.676,10H0Z" transform="translate(2471.061 1073.99)" fill="#fff"/>
      <path id="line-116" data-name="line" d="M0,8,10.824.01l10.838,8L21.676,10H0Z" transform="translate(2492.737 1073.99)" fill="#fff"/>
      <path id="line-117" data-name="line" d="M0,8,10.824.01l10.838,8L21.676,10H0Z" transform="translate(2514.413 1073.99)" fill="#fff"/>
      <path id="line-118" data-name="line" d="M0,8,10.824.01l10.838,8L21.676,10H0Z" transform="translate(2536.089 1073.99)" fill="#fff"/>
      <path id="line-119" data-name="line" d="M0,8,10.824.01l10.838,8L21.676,10H0Z" transform="translate(2557.765 1073.99)" fill="#fff"/>
      <path id="line-120" data-name="line" d="M0,8,10.824.01l10.838,8L21.676,10H0Z" transform="translate(2579.441 1073.99)" fill="#fff"/>
    </g>
  </svg>

    <path id="line-93" data-name="line" d="M0,8,10.824.01l10.838,8L21.676,10H0Z" transform="translate(1994.189 1073.99)" fill="#fff"/>
    <path id="line-94" data-name="line" d="M0,8,10.824.01l10.838,8L21.676,10H0Z" transform="translate(2015.865 1073.99)" fill="#fff"/>
    <path id="line-95" data-name="line" d="M0,8,10.824.01l10.838,8L21.676,10H0Z" transform="translate(2037.541 1073.99)" fill="#fff"/>
    <path id="line-96" data-name="line" d="M0,8,10.824.01l10.838,8L21.676,10H0Z" transform="translate(2059.217 1073.99)" fill="#fff"/>
    <path id="line-97" data-name="line" d="M0,8,10.824.01l10.838,8L21.676,10H0Z" transform="translate(2080.893 1073.99)" fill="#fff"/>
    <path id="line-98" data-name="line" d="M0,8,10.824.01l10.838,8L21.676,10H0Z" transform="translate(2102.569 1073.99)" fill="#fff"/>
    <path id="line-99" data-name="line" d="M0,8,10.824.01l10.838,8L21.676,10H0Z" transform="translate(2124.245 1073.99)" fill="#fff"/>
    <path id="line-100" data-name="line" d="M0,8,10.824.01l10.838,8L21.676,10H0Z" transform="translate(2145.921 1073.99)" fill="#fff"/>
    <path id="line-101" data-name="line" d="M0,8,10.824.01l10.838,8L21.676,10H0Z" transform="translate(2167.597 1073.99)" fill="#fff"/>
    <path id="line-102" data-name="line" d="M0,8,10.824.01l10.838,8L21.676,10H0Z" transform="translate(2189.273 1073.99)" fill="#fff"/>
    <path id="line-103" data-name="line" d="M0,8,10.824.01l10.838,8L21.676,10H0Z" transform="translate(2210.949 1073.99)" fill="#fff"/>
    <path id="line-104" data-name="line" d="M0,8,10.824.01l10.838,8L21.676,10H0Z" transform="translate(2232.625 1073.99)" fill="#fff"/>
    <path id="line-105" data-name="line" d="M0,8,10.824.01l10.838,8L21.676,10H0Z" transform="translate(2254.301 1073.99)" fill="#fff"/>
    <path id="line-106" data-name="line" d="M0,8,10.824.01l10.838,8L21.676,10H0Z" transform="translate(2275.977 1073.99)" fill="#fff"/>
    <path id="line-107" data-name="line" d="M0,8,10.824.01l10.838,8L21.676,10H0Z" transform="translate(2297.653 1073.99)" fill="#fff"/>
    <path id="line-108" data-name="line" d="M0,8,10.824.01l10.838,8L21.676,10H0Z" transform="translate(2319.329 1073.99)" fill="#fff"/>
    <path id="line-109" data-name="line" d="M0,8,10.824.01l10.838,8L21.676,10H0Z" transform="translate(2341.005 1073.99)" fill="#fff"/>
    <path id="line-110" data-name="line" d="M0,8,10.824.01l10.838,8L21.676,10H0Z" transform="translate(2362.681 1073.99)" fill="#fff"/>
    <path id="line-111" data-name="line" d="M0,8,10.824.01l10.838,8L21.676,10H0Z" transform="translate(2384.357 1073.99)" fill="#fff"/>
    <path id="line-112" data-name="line" d="M0,8,10.824.01l10.838,8L21.676,10H0Z" transform="translate(2406.033 1073.99)" fill="#fff"/>
    <path id="line-113" data-name="line" d="M0,8,10.824.01l10.838,8L21.676,10H0Z" transform="translate(2427.709 1073.99)" fill="#fff"/>
    <path id="line-114" data-name="line" d="M0,8,10.824.01l10.838,8L21.676,10H0Z" transform="translate(2449.385 1073.99)" fill="#fff"/>
    <path id="line-115" data-name="line" d="M0,8,10.824.01l10.838,8L21.676,10H0Z" transform="translate(2471.061 1073.99)" fill="#fff"/>
    <path id="line-116" data-name="line" d="M0,8,10.824.01l10.838,8L21.676,10H0Z" transform="translate(2492.737 1073.99)" fill="#fff"/>
    <path id="line-117" data-name="line" d="M0,8,10.824.01l10.838,8L21.676,10H0Z" transform="translate(2514.413 1073.99)" fill="#fff"/>
    <path id="line-118" data-name="line" d="M0,8,10.824.01l10.838,8L21.676,10H0Z" transform="translate(2536.089 1073.99)" fill="#fff"/>
    <path id="line-119" data-name="line" d="M0,8,10.824.01l10.838,8L21.676,10H0Z" transform="translate(2557.765 1073.99)" fill="#fff"/>
    <path id="line-120" data-name="line" d="M0,8,10.824.01l10.838,8L21.676,10H0Z" transform="translate(2579.441 1073.99)" fill="#fff"/>
  </g>
</svg>
