<svg xmlns="http://www.w3.org/2000/svg" width="1920" height="8.516" viewBox="0 0 1920 8.516">
  <g id="Group_669" data-name="Group 669" opacity="0.56">
    <path id="line" d="M0,6.821,7.98.01l7.99,6.819.01,1.7H0Z" transform="translate(0 -0.01)"/>
    <path id="line-2" data-name="line" d="M0,6.821,7.98.01l7.99,6.819.01,1.7H0Z" transform="translate(15.979 -0.01)"/>
    <path id="line-3" data-name="line" d="M0,6.821,7.98.01l7.99,6.819.01,1.7H0Z" transform="translate(31.959 -0.01)"/>
    <path id="line-4" data-name="line" d="M0,6.821,7.98.01l7.99,6.819.01,1.7H0Z" transform="translate(47.938 -0.01)"/>
    <path id="line-5" data-name="line" d="M0,6.821,7.98.01l7.99,6.819.01,1.7H0Z" transform="translate(63.917 -0.01)"/>
    <path id="line-6" data-name="line" d="M0,6.821,7.98.01l7.99,6.819.01,1.7H0Z" transform="translate(79.897 -0.01)"/>
    <path id="line-7" data-name="line" d="M0,6.821,7.98.01l7.99,6.819.01,1.7H0Z" transform="translate(95.876 -0.01)"/>
    <path id="line-8" data-name="line" d="M0,6.821,7.98.01l7.99,6.819.01,1.7H0Z" transform="translate(111.855 -0.01)"/>
    <path id="line-9" data-name="line" d="M0,6.821,7.98.01l7.99,6.819.01,1.7H0Z" transform="translate(127.835 -0.01)"/>
    <path id="line-10" data-name="line" d="M0,6.821,7.98.01l7.99,6.819.01,1.7H0Z" transform="translate(143.814 -0.01)"/>
    <path id="line-11" data-name="line" d="M0,6.821,7.98.01l7.99,6.819.01,1.7H0Z" transform="translate(159.793 -0.01)"/>
    <path id="line-12" data-name="line" d="M0,6.821,7.98.01l7.99,6.819.01,1.7H0Z" transform="translate(175.773 -0.01)"/>
    <path id="line-13" data-name="line" d="M0,6.821,7.98.01l7.99,6.819.01,1.7H0Z" transform="translate(191.752 -0.01)"/>
    <path id="line-14" data-name="line" d="M0,6.821,7.98.01l7.99,6.819.01,1.7H0Z" transform="translate(207.731 -0.01)"/>
    <path id="line-15" data-name="line" d="M0,6.821,7.98.01l7.99,6.819.01,1.7H0Z" transform="translate(223.711 -0.01)"/>
    <path id="line-16" data-name="line" d="M0,6.821,7.98.01l7.99,6.819.01,1.7H0Z" transform="translate(239.69 -0.01)"/>
    <path id="line-17" data-name="line" d="M0,6.821,7.98.01l7.99,6.819.01,1.7H0Z" transform="translate(255.669 -0.01)"/>
    <path id="line-18" data-name="line" d="M0,6.821,7.98.01l7.99,6.819.01,1.7H0Z" transform="translate(271.649 -0.01)"/>
    <path id="line-19" data-name="line" d="M0,6.821,7.98.01l7.99,6.819.01,1.7H0Z" transform="translate(287.628 -0.01)"/>
    <path id="line-20" data-name="line" d="M0,6.821,7.98.01l7.99,6.819.01,1.7H0Z" transform="translate(303.607 -0.01)"/>
    <path id="line-21" data-name="line" d="M0,6.821,7.98.01l7.99,6.819.01,1.7H0Z" transform="translate(319.587 -0.01)"/>
    <path id="line-22" data-name="line" d="M0,6.821,7.98.01l7.99,6.819.01,1.7H0Z" transform="translate(335.566 -0.01)"/>
    <path id="line-23" data-name="line" d="M0,6.821,7.98.01l7.99,6.819.01,1.7H0Z" transform="translate(351.545 -0.01)"/>
    <path id="line-24" data-name="line" d="M0,6.821,7.98.01l7.99,6.819.01,1.7H0Z" transform="translate(368.231 -0.01)"/>
    <path id="line-25" data-name="line" d="M0,6.821,7.98.01l7.99,6.819.01,1.7H0Z" transform="translate(384.004 -0.01)"/>
    <path id="line-26" data-name="line" d="M0,6.821,7.98.01l7.99,6.819.01,1.7H0Z" transform="translate(400.004 -0.01)"/>
    <path id="line-27" data-name="line" d="M0,6.821,7.98.01l7.99,6.819.01,1.7H0Z" transform="translate(416.004 -0.01)"/>
    <path id="line-28" data-name="line" d="M0,6.821,7.98.01l7.99,6.819.01,1.7H0Z" transform="translate(432.005 -0.01)"/>
    <path id="line-29" data-name="line" d="M0,6.821,7.98.01l7.99,6.819.01,1.7H0Z" transform="translate(448.005 -0.01)"/>
    <path id="line-30" data-name="line" d="M0,6.821,7.98.01l7.99,6.819.01,1.7H0Z" transform="translate(464.005 -0.01)"/>
    <path id="line-31" data-name="line" d="M0,6.821,7.98.01l7.99,6.819.01,1.7H0Z" transform="translate(480.005 -0.01)"/>
    <path id="line-32" data-name="line" d="M0,6.821,7.98.01l7.99,6.819.01,1.7H0Z" transform="translate(496.005 -0.01)"/>
    <path id="line-33" data-name="line" d="M0,6.821,7.98.01l7.99,6.819.01,1.7H0Z" transform="translate(512.005 -0.01)"/>
    <path id="line-34" data-name="line" d="M0,6.821,7.98.01l7.99,6.819.01,1.7H0Z" transform="translate(528.006 -0.01)"/>
    <path id="line-35" data-name="line" d="M0,6.821,7.98.01l7.99,6.819.01,1.7H0Z" transform="translate(544.006 -0.01)"/>
    <path id="line-36" data-name="line" d="M0,6.821,7.98.01l7.99,6.819.01,1.7H0Z" transform="translate(560.006 -0.01)"/>
    <path id="line-37" data-name="line" d="M0,6.821,7.98.01l7.99,6.819.01,1.7H0Z" transform="translate(576.006 -0.01)"/>
    <path id="line-38" data-name="line" d="M0,6.821,7.98.01l7.99,6.819.01,1.7H0Z" transform="translate(592.006 -0.01)"/>
    <path id="line-39" data-name="line" d="M0,6.821,7.98.01l7.99,6.819.01,1.7H0Z" transform="translate(608.006 -0.01)"/>
    <path id="line-40" data-name="line" d="M0,6.821,7.98.01l7.99,6.819.01,1.7H0Z" transform="translate(624.007 -0.01)"/>
    <path id="line-41" data-name="line" d="M0,6.821,7.98.01l7.99,6.819.01,1.7H0Z" transform="translate(640.007 -0.01)"/>
    <path id="line-42" data-name="line" d="M0,6.821,7.98.01l7.99,6.819.01,1.7H0Z" transform="translate(656.007 -0.01)"/>
    <path id="line-43" data-name="line" d="M0,6.821,7.98.01l7.99,6.819.01,1.7H0Z" transform="translate(672.007 -0.01)"/>
    <path id="line-44" data-name="line" d="M0,6.821,7.98.01l7.99,6.819.01,1.7H0Z" transform="translate(688.007 -0.01)"/>
    <path id="line-45" data-name="line" d="M0,6.821,7.98.01l7.99,6.819.01,1.7H0Z" transform="translate(704.007 -0.01)"/>
    <path id="line-46" data-name="line" d="M0,6.821,7.98.01l7.99,6.819.01,1.7H0Z" transform="translate(720.008 -0.01)"/>
    <path id="line-47" data-name="line" d="M0,6.821,7.98.01l7.99,6.819.01,1.7H0Z" transform="translate(736.008 -0.01)"/>
    <path id="line-48" data-name="line" d="M0,6.821,7.98.01l7.99,6.819.01,1.7H0Z" transform="translate(752.008 -0.01)"/>
    <path id="line-49" data-name="line" d="M0,6.821,7.98.01l7.99,6.819.01,1.7H0Z" transform="translate(768.008 -0.01)"/>
    <path id="line-50" data-name="line" d="M0,6.821,7.98.01l7.99,6.819.01,1.7H0Z" transform="translate(784.008 -0.01)"/>
    <path id="line-51" data-name="line" d="M0,6.821,7.98.01l7.99,6.819.01,1.7H0Z" transform="translate(800.009 -0.01)"/>
    <path id="line-52" data-name="line" d="M0,6.821,7.98.01l7.99,6.819.01,1.7H0Z" transform="translate(816.009 -0.01)"/>
    <path id="line-53" data-name="line" d="M0,6.821,7.98.01l7.99,6.819.01,1.7H0Z" transform="translate(832.009 -0.01)"/>
    <path id="line-54" data-name="line" d="M0,6.821,7.98.01l7.99,6.819.01,1.7H0Z" transform="translate(848.009 -0.01)"/>
    <path id="line-55" data-name="line" d="M0,6.821,7.98.01l7.99,6.819.01,1.7H0Z" transform="translate(864.009 -0.01)"/>
    <path id="line-56" data-name="line" d="M0,6.821,7.98.01l7.99,6.819.01,1.7H0Z" transform="translate(880.009 -0.01)"/>
    <path id="line-57" data-name="line" d="M0,6.821,7.98.01l7.99,6.819.01,1.7H0Z" transform="translate(896.01 -0.01)"/>
    <path id="line-58" data-name="line" d="M0,6.821,7.98.01l7.99,6.819.01,1.7H0Z" transform="translate(912.01 -0.01)"/>
    <path id="line-59" data-name="line" d="M0,6.821,7.98.01l7.99,6.819.01,1.7H0Z" transform="translate(928.01 -0.01)"/>
    <path id="line-60" data-name="line" d="M0,6.821,7.98.01l7.99,6.819.01,1.7H0Z" transform="translate(944.01 -0.01)"/>
    <path id="line-61" data-name="line" d="M0,6.821,7.98.01l7.99,6.819.01,1.7H0Z" transform="translate(960.01 -0.01)"/>
    <path id="line-62" data-name="line" d="M0,6.821,7.98.01l7.99,6.819.01,1.7H0Z" transform="translate(976.01 -0.01)"/>
    <path id="line-63" data-name="line" d="M0,6.821,7.98.01l7.99,6.819.01,1.7H0Z" transform="translate(992.011 -0.01)"/>
    <path id="line-64" data-name="line" d="M0,6.821,7.98.01l7.99,6.819.01,1.7H0Z" transform="translate(1008.011 -0.01)"/>
    <path id="line-65" data-name="line" d="M0,6.821,7.98.01l7.99,6.819.01,1.7H0Z" transform="translate(1024.011 -0.01)"/>
    <path id="line-66" data-name="line" d="M0,6.821,7.98.01l7.99,6.819.01,1.7H0Z" transform="translate(1040.011 -0.01)"/>
    <path id="line-67" data-name="line" d="M0,6.821,7.98.01l7.99,6.819.01,1.7H0Z" transform="translate(1056.011 -0.01)"/>
    <path id="line-68" data-name="line" d="M0,6.821,7.98.01l7.99,6.819.01,1.7H0Z" transform="translate(1072.011 -0.01)"/>
    <path id="line-69" data-name="line" d="M0,6.821,7.98.01l7.99,6.819.01,1.7H0Z" transform="translate(1088.012 -0.01)"/>
    <path id="line-70" data-name="line" d="M0,6.821,7.98.01l7.99,6.819.01,1.7H0Z" transform="translate(1104.012 -0.01)"/>
    <path id="line-71" data-name="line" d="M0,6.821,7.98.01l7.99,6.819.01,1.7H0Z" transform="translate(1120.012 -0.01)"/>
    <path id="line-72" data-name="line" d="M0,6.821,7.98.01l7.99,6.819.01,1.7H0Z" transform="translate(1136.012 -0.01)"/>
    <path id="line-73" data-name="line" d="M0,6.821,7.98.01l7.99,6.819.01,1.7H0Z" transform="translate(1152.012 -0.01)"/>
    <path id="line-74" data-name="line" d="M0,6.821,7.98.01l7.99,6.819.01,1.7H0Z" transform="translate(1168.013 -0.01)"/>
    <path id="line-75" data-name="line" d="M0,6.821,7.98.01l7.99,6.819.01,1.7H0Z" transform="translate(1184.013 -0.01)"/>
    <path id="line-76" data-name="line" d="M0,6.821,7.98.01l7.99,6.819.01,1.7H0Z" transform="translate(1200.013 -0.01)"/>
    <path id="line-77" data-name="line" d="M0,6.821,7.98.01l7.99,6.819.01,1.7H0Z" transform="translate(1216.013 -0.01)"/>
    <path id="line-78" data-name="line" d="M0,6.821,7.98.01l7.99,6.819.01,1.7H0Z" transform="translate(1232.013 -0.01)"/>
    <path id="line-79" data-name="line" d="M0,6.821,7.98.01l7.99,6.819.01,1.7H0Z" transform="translate(1248.013 -0.01)"/>
    <path id="line-80" data-name="line" d="M0,6.821,7.98.01l7.99,6.819.01,1.7H0Z" transform="translate(1264.013 -0.01)"/>
    <path id="line-81" data-name="line" d="M0,6.821,7.98.01l7.99,6.819.01,1.7H0Z" transform="translate(1280.014 -0.01)"/>
    <path id="line-82" data-name="line" d="M0,6.821,7.98.01l7.99,6.819.01,1.7H0Z" transform="translate(1296.014 -0.01)"/>
    <path id="line-83" data-name="line" d="M0,6.821,7.98.01l7.99,6.819.01,1.7H0Z" transform="translate(1312.014 -0.01)"/>
    <path id="line-84" data-name="line" d="M0,6.821,7.98.01l7.99,6.819.01,1.7H0Z" transform="translate(1328.014 -0.01)"/>
    <path id="line-85" data-name="line" d="M0,6.821,7.98.01l7.99,6.819.01,1.7H0Z" transform="translate(1344.014 -0.01)"/>
    <path id="line-86" data-name="line" d="M0,6.821,7.98.01l7.99,6.819.01,1.7H0Z" transform="translate(1360.014 -0.01)"/>
    <path id="line-87" data-name="line" d="M0,6.821,7.98.01l7.99,6.819.01,1.7H0Z" transform="translate(1376.015 -0.01)"/>
    <path id="line-88" data-name="line" d="M0,6.821,7.98.01l7.99,6.819.01,1.7H0Z" transform="translate(1392.015 -0.01)"/>
    <path id="line-89" data-name="line" d="M0,6.821,7.98.01l7.99,6.819.01,1.7H0Z" transform="translate(1408.015 -0.01)"/>
    <path id="line-90" data-name="line" d="M0,6.821,7.98.01l7.99,6.819.01,1.7H0Z" transform="translate(1424.015 -0.01)"/>
    <path id="line-91" data-name="line" d="M0,6.821,7.98.01l7.99,6.819.01,1.7H0Z" transform="translate(1440.015 -0.01)"/>
    <path id="line-92" data-name="line" d="M0,6.821,7.98.01l7.99,6.819.01,1.7H0Z" transform="translate(1456.015 -0.01)"/>
    <path id="line-93" data-name="line" d="M0,6.821,7.98.01l7.99,6.819.01,1.7H0Z" transform="translate(1472.016 -0.01)"/>
    <path id="line-94" data-name="line" d="M0,6.821,7.98.01l7.99,6.819.01,1.7H0Z" transform="translate(1488.016 -0.01)"/>
    <path id="line-95" data-name="line" d="M0,6.821,7.98.01l7.99,6.819.01,1.7H0Z" transform="translate(1504.016 -0.01)"/>
    <path id="line-96" data-name="line" d="M0,6.821,7.98.01l7.99,6.819.01,1.7H0Z" transform="translate(1520.016 -0.01)"/>
    <path id="line-97" data-name="line" d="M0,6.821,7.98.01l7.99,6.819.01,1.7H0Z" transform="translate(1535.713 -0.01)"/>
    <path id="line-98" data-name="line" d="M0,6.821,7.98.01l7.99,6.819.01,1.7H0Z" transform="translate(1552.475 -0.01)"/>
    <path id="line-99" data-name="line" d="M0,6.821,7.98.01l7.99,6.819.01,1.7H0Z" transform="translate(1568.454 -0.01)"/>
    <path id="line-100" data-name="line" d="M0,6.821,7.98.01l7.99,6.819.01,1.7H0Z" transform="translate(1584.434 -0.01)"/>
    <path id="line-101" data-name="line" d="M0,6.821,7.98.01l7.99,6.819.01,1.7H0Z" transform="translate(1600.413 -0.01)"/>
    <path id="line-102" data-name="line" d="M0,6.821,7.98.01l7.99,6.819.01,1.7H0Z" transform="translate(1616.392 -0.01)"/>
    <path id="line-103" data-name="line" d="M0,6.821,7.98.01l7.99,6.819.01,1.7H0Z" transform="translate(1632.372 -0.01)"/>
    <path id="line-104" data-name="line" d="M0,6.821,7.98.01l7.99,6.819.01,1.7H0Z" transform="translate(1648.351 -0.01)"/>
    <path id="line-105" data-name="line" d="M0,6.821,7.98.01l7.99,6.819.01,1.7H0Z" transform="translate(1664.33 -0.01)"/>
    <path id="line-106" data-name="line" d="M0,6.821,7.98.01l7.99,6.819.01,1.7H0Z" transform="translate(1680.31 -0.01)"/>
    <path id="line-107" data-name="line" d="M0,6.821,7.98.01l7.99,6.819.01,1.7H0Z" transform="translate(1696.289 -0.01)"/>
    <path id="line-108" data-name="line" d="M0,6.821,7.98.01l7.99,6.819.01,1.7H0Z" transform="translate(1712.268 -0.01)"/>
    <path id="line-109" data-name="line" d="M0,6.821,7.98.01l7.99,6.819.01,1.7H0Z" transform="translate(1728.248 -0.01)"/>
    <path id="line-110" data-name="line" d="M0,6.821,7.98.01l7.99,6.819.01,1.7H0Z" transform="translate(1744.227 -0.01)"/>
    <path id="line-111" data-name="line" d="M0,6.821,7.98.01l7.99,6.819.01,1.7H0Z" transform="translate(1760.206 -0.01)"/>
    <path id="line-112" data-name="line" d="M0,6.821,7.98.01l7.99,6.819.01,1.7H0Z" transform="translate(1776.186 -0.01)"/>
    <path id="line-113" data-name="line" d="M0,6.821,7.98.01l7.99,6.819.01,1.7H0Z" transform="translate(1792.165 -0.01)"/>
    <path id="line-114" data-name="line" d="M0,6.821,7.98.01l7.99,6.819.01,1.7H0Z" transform="translate(1808.145 -0.01)"/>
    <path id="line-115" data-name="line" d="M0,6.821,7.98.01l7.99,6.819.01,1.7H0Z" transform="translate(1824.124 -0.01)"/>
    <path id="line-116" data-name="line" d="M0,6.821,7.98.01l7.99,6.819.01,1.7H0Z" transform="translate(1840.103 -0.01)"/>
    <path id="line-117" data-name="line" d="M0,6.821,7.98.01l7.99,6.819.01,1.7H0Z" transform="translate(1856.083 -0.01)"/>
    <path id="line-118" data-name="line" d="M0,6.821,7.98.01l7.99,6.819.01,1.7H0Z" transform="translate(1872.062 -0.01)"/>
    <path id="line-119" data-name="line" d="M0,6.821,7.98.01l7.99,6.819.01,1.7H0Z" transform="translate(1888.041 -0.01)"/>
    <path id="line-120" data-name="line" d="M0,6.821,7.98.01l7.99,6.819.01,1.7H0Z" transform="translate(1904.021 -0.01)"/>
  </g>
</svg>
